<svg xmlns="http://www.w3.org/2000/svg" width="850" height="513.933" viewBox="0 0 850 513.933">
  <g id="Group_29321" data-name="Group 29321" transform="translate(-535 -1109.067)">
    <g id="Rectangle_10656" data-name="Rectangle 10656" transform="translate(535 1621)" fill="#fff" stroke="#707070" stroke-width="1">
      <rect width="850" height="2" stroke="none"/>
      <rect x="0.5" y="0.5" width="849" height="1" fill="none"/>
    </g>
    <g id="Group_28812" data-name="Group 28812" transform="translate(814.137 1128.877)">
      <rect id="Rectangle_10657" data-name="Rectangle 10657" width="55.446" height="55.446" rx="10.157" fill="#17a9fe"/>
    </g>
    <g id="Group_28816" data-name="Group 28816" transform="translate(828.934 1141.878)">
      <path id="Path_33572" data-name="Path 33572" d="M142.959,97.182l2.02-7.537a13.943,13.943,0,1,1,5.556,5.508Zm7.952-4.854.477.284a11.323,11.323,0,1,0-3.873-3.838l.293.48-1.128,4.208Z" transform="translate(-142.959 -69.006)" fill="#fff"/>
    </g>
    <g id="Group_28820" data-name="Group 28820" transform="translate(836.234 1149.518)">
      <path id="Path_33573" data-name="Path 33573" d="M160.974,83.693a2.34,2.34,0,0,0-1.993-.449c-.517.212-.848,1.022-1.183,1.436a.5.5,0,0,1-.643.139,9.025,9.025,0,0,1-4.5-3.859.552.552,0,0,1,.069-.754,3.036,3.036,0,0,0,.819-1.329,2.9,2.9,0,0,0-.366-1.573,3.73,3.73,0,0,0-1.16-1.75,1.59,1.59,0,0,0-1.728.257,3.506,3.506,0,0,0-1.215,2.778,3.977,3.977,0,0,0,.109.882,7.312,7.312,0,0,0,.846,1.949,15.375,15.375,0,0,0,.883,1.342,13.62,13.62,0,0,0,3.83,3.556,11.635,11.635,0,0,0,2.388,1.136,5.325,5.325,0,0,0,2.781.439,3.366,3.366,0,0,0,2.52-1.875,1.633,1.633,0,0,0,.117-.957C162.4,84.4,161.507,84.012,160.974,83.693Z" transform="translate(-149.069 -75.398)" fill="#fff" fill-rule="evenodd"/>
    </g>
    <g id="Group_28829" data-name="Group 28829" transform="translate(1151.008 1508.621)">
      <g id="Group_28828" data-name="Group 28828">
        <g id="Group_28827" data-name="Group 28827">
          <g id="Group_28826" data-name="Group 28826">
            <g id="Group_28825" data-name="Group 28825">
              <path id="Path_33574" data-name="Path 33574" d="M406.135,388.361a35.115,35.115,0,0,1,8.577-3.729l1.767-8.491,14.344-.251,2.065,8.421a35.153,35.153,0,0,1,8.7,3.425l7.25-4.753,10.322,9.965-4.495,7.412a35.1,35.1,0,0,1,3.729,8.579l8.49,1.766.251,14.345-8.422,2.065a35.166,35.166,0,0,1-3.424,8.7l4.75,7.25-9.964,10.322-7.412-4.495a35.127,35.127,0,0,1-8.579,3.727l-1.766,8.491-14.345.251-2.064-8.423a35.126,35.126,0,0,1-8.7-3.424l-7.25,4.753-10.322-9.965,4.493-7.412a35.172,35.172,0,0,1-3.727-8.579l-8.49-1.766-.252-14.345,8.423-2.065a35.184,35.184,0,0,1,3.424-8.7l-4.752-7.25,9.964-10.322,7.414,4.495Zm7.646,19.109a15.391,15.391,0,1,0,21.763-.382A15.392,15.392,0,0,0,413.781,407.47Z" transform="translate(-381.662 -375.891)" fill="#17a9fe"/>
            </g>
          </g>
        </g>
      </g>
    </g>
    <g id="Group_29319" data-name="Group 29319" transform="translate(635.773 1161.818)">
      <g id="Group_28828-2" data-name="Group 28828">
        <g id="Group_28827-2" data-name="Group 28827">
          <g id="Group_28826-2" data-name="Group 28826">
            <g id="Group_28825-2" data-name="Group 28825">
              <path id="Path_33574-2" data-name="Path 33574" d="M406.135,388.361a35.115,35.115,0,0,1,8.577-3.729l1.767-8.491,14.344-.251,2.065,8.421a35.153,35.153,0,0,1,8.7,3.425l7.25-4.753,10.322,9.965-4.495,7.412a35.1,35.1,0,0,1,3.729,8.579l8.49,1.766.251,14.345-8.422,2.065a35.166,35.166,0,0,1-3.424,8.7l4.75,7.25-9.964,10.322-7.412-4.495a35.127,35.127,0,0,1-8.579,3.727l-1.766,8.491-14.345.251-2.064-8.423a35.126,35.126,0,0,1-8.7-3.424l-7.25,4.753-10.322-9.965,4.493-7.412a35.172,35.172,0,0,1-3.727-8.579l-8.49-1.766-.252-14.345,8.423-2.065a35.184,35.184,0,0,1,3.424-8.7l-4.752-7.25,9.964-10.322,7.414,4.495Zm7.646,19.109a15.391,15.391,0,1,0,21.763-.382A15.392,15.392,0,0,0,413.781,407.47Z" transform="translate(-381.662 -375.891)" fill="#7595ec"/>
            </g>
          </g>
        </g>
      </g>
    </g>
    <g id="Group_28861" data-name="Group 28861" transform="translate(1223.01 1468.574)">
      <path id="Path_33580" data-name="Path 33580" d="M443,348.987a18.714,18.714,0,0,1,4.545-1.975l.936-4.5,7.6-.133,1.095,4.462a18.629,18.629,0,0,1,4.612,1.814l3.841-2.518,5.469,5.28-2.381,3.927a18.607,18.607,0,0,1,1.974,4.546l4.5.936.134,7.6-4.462,1.093a18.635,18.635,0,0,1-1.814,4.612l2.517,3.842-5.28,5.469-3.927-2.382a18.6,18.6,0,0,1-4.545,1.975l-.937,4.5-7.6.134-1.095-4.464a18.6,18.6,0,0,1-4.611-1.814l-3.842,2.518-5.469-5.28,2.382-3.927a18.608,18.608,0,0,1-1.975-4.546l-4.5-.936-.134-7.6,4.462-1.093a18.68,18.68,0,0,1,1.814-4.612l-2.517-3.841,5.28-5.469L443,348.987Zm4.052,10.126a8.154,8.154,0,1,0,11.53-.2A8.153,8.153,0,0,0,447.053,359.113Z" transform="translate(-430.034 -342.381)" fill="#17a9fe"/>
    </g>
    <g id="Group_29320" data-name="Group 29320" transform="translate(707.777 1121.771)">
      <path id="Path_33580-2" data-name="Path 33580" d="M443,348.987a18.714,18.714,0,0,1,4.545-1.975l.936-4.5,7.6-.133,1.095,4.462a18.629,18.629,0,0,1,4.612,1.814l3.841-2.518,5.469,5.28-2.381,3.927a18.607,18.607,0,0,1,1.974,4.546l4.5.936.134,7.6-4.462,1.093a18.635,18.635,0,0,1-1.814,4.612l2.517,3.842-5.28,5.469-3.927-2.382a18.6,18.6,0,0,1-4.545,1.975l-.937,4.5-7.6.134-1.095-4.464a18.6,18.6,0,0,1-4.611-1.814l-3.842,2.518-5.469-5.28,2.382-3.927a18.608,18.608,0,0,1-1.975-4.546l-4.5-.936-.134-7.6,4.462-1.093a18.68,18.68,0,0,1,1.814-4.612l-2.517-3.841,5.28-5.469L443,348.987Zm4.052,10.126a8.154,8.154,0,1,0,11.53-.2A8.153,8.153,0,0,0,447.053,359.113Z" transform="translate(-430.034 -342.381)" fill="#7595ec"/>
    </g>
    <g id="Group_28931" data-name="Group 28931" transform="translate(924.416 1390.978)">
      <rect id="Rectangle_10659" data-name="Rectangle 10659" width="56.65" height="56.65" rx="9.615" fill="#7595ec"/>
    </g>
    <g id="Group_28935" data-name="Group 28935" transform="translate(938.949 1405.508)">
      <path id="Path_33596" data-name="Path 33596" d="M236.276,317.2a1.258,1.258,0,0,1-.89-2.147l6.73-6.732a11.6,11.6,0,0,1,.839-15.34,11.513,11.513,0,1,1,.939,17.12l-6.729,6.73A1.253,1.253,0,0,1,236.276,317.2Zm14.82-25.074a8.991,8.991,0,1,0,6.36,2.635A8.939,8.939,0,0,0,251.1,292.124Z" transform="translate(-235.019 -289.608)" fill="#fff"/>
    </g>
    <g id="Group_28942" data-name="Group 28942" transform="translate(1161.672 1141.941)">
      <g id="Group_28941" data-name="Group 28941">
        <g id="Group_28940" data-name="Group 28940">
          <rect id="Rectangle_10660" data-name="Rectangle 10660" width="53.759" height="53.759" rx="10.384" fill="#91ba83"/>
        </g>
      </g>
    </g>
    <g id="Group_28952" data-name="Group 28952" transform="translate(1174.057 1157.258)">
      <g id="Group_28945" data-name="Group 28945" transform="translate(12.17 18.595)">
        <path id="Path_33597" data-name="Path 33597" d="M446.47,99.712a2.266,2.266,0,1,1-2.255-2.277A2.266,2.266,0,0,1,446.47,99.712Z" transform="translate(-441.938 -97.435)" fill="#fff"/>
      </g>
      <g id="Group_28947" data-name="Group 28947" transform="translate(7.754 13.419)">
        <g id="Group_28946" data-name="Group 28946">
          <path id="Path_33598" data-name="Path 33598" d="M440.4,97.644a6.277,6.277,0,0,1,9.083-.119,1.275,1.275,0,0,0,1.811-1.794,8.854,8.854,0,0,0-12.688.1c-1.131,1.188.66,3,1.794,1.81Z" transform="translate(-438.243 -93.104)" fill="#fff"/>
        </g>
      </g>
      <g id="Group_28949" data-name="Group 28949">
        <g id="Group_28948" data-name="Group 28948">
          <path id="Path_33599" data-name="Path 33599" d="M433.966,89.288a18.554,18.554,0,0,1,12.164-4.864,18.047,18.047,0,0,1,12.409,4.748c1.194,1.122,3.008-.667,1.809-1.793a20.686,20.686,0,0,0-14.207-5.5,21.3,21.3,0,0,0-13.969,5.6c-1.244,1.076.557,2.88,1.793,1.81Z" transform="translate(-431.754 -81.875)" fill="#fff"/>
        </g>
      </g>
      <g id="Group_28951" data-name="Group 28951" transform="translate(3.105 6.567)">
        <g id="Group_28950" data-name="Group 28950">
          <path id="Path_33600" data-name="Path 33600" d="M436.5,94.061a12.464,12.464,0,0,1,18.316-.262c1.146,1.177,2.957-.617,1.811-1.794a15.007,15.007,0,0,0-21.921.245c-1.113,1.2.676,3.017,1.794,1.81Z" transform="translate(-434.352 -87.37)" fill="#fff"/>
        </g>
      </g>
    </g>
    <g id="Group_28957" data-name="Group 28957" transform="translate(1116.768 1376.355)">
      <g id="Group_28956" data-name="Group 28956">
        <path id="Path_33601" data-name="Path 33601" d="M384.128,265.213c.171,0,.311,6.024.311,13.454s-.14,13.455-.311,13.455-.312-6.023-.312-13.455S383.956,265.213,384.128,265.213Z" transform="translate(-383.816 -265.213)" fill="#263238"/>
      </g>
    </g>
    <g id="Group_28959" data-name="Group 28959" transform="translate(1015.529 1187.938)">
      <g id="Group_28958" data-name="Group 28958">
        <path id="Path_33602" data-name="Path 33602" d="M299.411,152.389c-.171,0-.311-10.04-.311-22.419s.14-22.421.311-22.421.312,10.036.312,22.421S299.583,152.389,299.411,152.389Z" transform="translate(-299.1 -107.548)" fill="#263238"/>
      </g>
    </g>
    <g id="Group_28961" data-name="Group 28961" transform="translate(926.771 1254.834)">
      <g id="Group_28960" data-name="Group 28960">
        <path id="Path_33603" data-name="Path 33603" d="M279.242,194.621a4.182,4.182,0,0,1-.827.062l-2.373.059-8.725.1-28.786.091h-4.164a15.658,15.658,0,0,1-2.076-.078,7.336,7.336,0,0,1-2-.58,9.331,9.331,0,0,1-4.94-5.85,11.817,11.817,0,0,1-.519-3.592q.02-1.73.038-3.357c.029-2.161.055-4.177.079-6.025.066-3.629.12-6.592.159-8.725.031-.979.055-1.766.074-2.371a4.16,4.16,0,0,1,.068-.827,4.142,4.142,0,0,1,.057.827c.011.606.025,1.393.042,2.373.011,2.133.024,5.1.039,8.725,0,1.848,0,3.865,0,6.025.059,2.164-.251,4.517.511,6.775a8.774,8.774,0,0,0,4.64,5.464,6.735,6.735,0,0,0,1.838.528,15.244,15.244,0,0,0,1.992.068l4.164,0,28.786.092,8.725.1,2.373.059A4.1,4.1,0,0,1,279.242,194.621Z" transform="translate(-224.83 -163.526)" fill="#263238"/>
      </g>
    </g>
    <g id="Group_28969" data-name="Group 28969" transform="translate(977.045 1114.547)">
      <g id="Group_28968" data-name="Group 28968">
        <g id="Group_28967" data-name="Group 28967">
          <g id="Group_28966" data-name="Group 28966">
            <g id="Group_28965" data-name="Group 28965">
              <g id="Group_28962" data-name="Group 28962" transform="translate(0.308 0.311)">
                <rect id="Rectangle_10661" data-name="Rectangle 10661" width="72.832" height="72.832" rx="10.384" fill="#fff"/>
              </g>
              <g id="Group_28964" data-name="Group 28964">
                <g id="Group_28963" data-name="Group 28963">
                  <path id="Path_33604" data-name="Path 33604" d="M327.628,119.279a21.928,21.928,0,0,0,2.707-.37,12.37,12.37,0,0,0,6.56-3.984,11.948,11.948,0,0,0,2.579-4.937c.572-1.985.365-4.262.391-6.687-.014-4.857-.03-10.38-.047-16.486s-.024-12.8-.038-19.979q0-2.694-.007-5.477a21.087,21.087,0,0,0-.41-5.55,12.118,12.118,0,0,0-7.4-8.265,11.792,11.792,0,0,0-2.88-.712,26.318,26.318,0,0,0-3.045-.093l-6.272,0-12.936.008-27.2.006a12.188,12.188,0,0,0-6.422,1.855,11.538,11.538,0,0,0-2.559,2.149,11.412,11.412,0,0,0-1.867,2.744,11.878,11.878,0,0,0-1.047,3.124,16.947,16.947,0,0,0-.214,3.3q0,3.352,0,6.649c-.006,8.788-.012,17.267-.018,25.343q-.007,6.057-.013,11.8a30.866,30.866,0,0,0,.238,5.584,12.216,12.216,0,0,0,10.808,9.68c3.289.116,6.521.043,9.564.075l28.931.1,7.866.059,2.046.031c.46.011.7.032.7.032s-.237.022-.7.031l-2.046.031-7.866.059-28.931.1c-3.062-.019-6.233.07-9.606-.037a12.584,12.584,0,0,1-8.992-5,12.752,12.752,0,0,1-2.3-5.05,31.232,31.232,0,0,1-.263-5.691q-.005-5.74-.013-11.8c-.006-8.076-.012-16.555-.018-25.343q0-3.3,0-6.649a17.622,17.622,0,0,1,.222-3.408,12.412,12.412,0,0,1,1.1-3.285,11.918,11.918,0,0,1,1.96-2.885,12.152,12.152,0,0,1,2.689-2.261,12.811,12.811,0,0,1,6.753-1.95l27.2.007,12.936.007,6.272,0a26.731,26.731,0,0,1,3.114.1,12.4,12.4,0,0,1,3.016.753,12.675,12.675,0,0,1,7.728,8.664,21.542,21.542,0,0,1,.411,5.686q0,2.782-.008,5.477c-.013,7.18-.026,13.87-.038,19.979s-.032,11.629-.045,16.486c-.044,2.407.153,4.716-.452,6.763a12.149,12.149,0,0,1-2.683,5.02,12.347,12.347,0,0,1-6.715,3.948,11.143,11.143,0,0,1-2.036.244C327.863,119.289,327.628,119.279,327.628,119.279Z" transform="translate(-266.897 -46.135)" fill="#263238"/>
                </g>
              </g>
            </g>
          </g>
        </g>
      </g>
    </g>
    <g id="Group_28977" data-name="Group 28977" transform="translate(1066.969 1139.546)">
      <g id="Group_28976" data-name="Group 28976">
        <g id="Group_28975" data-name="Group 28975">
          <g id="Group_28974" data-name="Group 28974">
            <g id="Group_28973" data-name="Group 28973">
              <g id="Group_28970" data-name="Group 28970" transform="translate(0.309 0.311)">
                <rect id="Rectangle_10662" data-name="Rectangle 10662" width="72.832" height="72.832" rx="10.384" fill="#fff"/>
              </g>
              <g id="Group_28972" data-name="Group 28972">
                <g id="Group_28971" data-name="Group 28971">
                  <path id="Path_33605" data-name="Path 33605" d="M402.876,140.2a22,22,0,0,0,2.706-.369,12.369,12.369,0,0,0,6.56-3.985,11.928,11.928,0,0,0,2.58-4.937c.572-1.984.363-4.26.39-6.687-.013-4.855-.029-10.38-.045-16.484s-.025-12.8-.038-19.98q0-2.692-.008-5.477a21.078,21.078,0,0,0-.409-5.549,12.118,12.118,0,0,0-7.4-8.265,11.766,11.766,0,0,0-2.88-.713,26.067,26.067,0,0,0-3.045-.092l-6.273,0-12.936.007-27.2.006a12.2,12.2,0,0,0-6.422,1.855,11.541,11.541,0,0,0-2.559,2.15,11.326,11.326,0,0,0-1.865,2.744,11.811,11.811,0,0,0-1.047,3.123,16.949,16.949,0,0,0-.215,3.3q0,3.354,0,6.649c-.007,8.79-.013,17.267-.018,25.345q-.007,6.057-.013,11.8a30.99,30.99,0,0,0,.237,5.586,12.246,12.246,0,0,0,2.187,4.846,12.1,12.1,0,0,0,8.622,4.833c3.288.117,6.52.044,9.564.075l28.931.1,7.866.059c.882.013,1.561.023,2.045.031.461.01.7.031.7.031s-.237.021-.7.032l-2.045.031-7.866.057-28.931.1c-3.063-.018-6.233.071-9.607-.037a12.584,12.584,0,0,1-8.992-5,12.745,12.745,0,0,1-2.3-5.049,31.142,31.142,0,0,1-.263-5.692q-.007-5.738-.013-11.8c-.006-8.077-.012-16.555-.018-25.345q0-3.295,0-6.649a17.624,17.624,0,0,1,.223-3.408,12.412,12.412,0,0,1,1.1-3.285,11.964,11.964,0,0,1,1.96-2.885A12.12,12.12,0,0,1,348.117,69a12.8,12.8,0,0,1,6.752-1.95l27.2.006,12.936.007,6.273,0a26.713,26.713,0,0,1,3.113.1,12.331,12.331,0,0,1,3.016.753,12.67,12.67,0,0,1,7.728,8.663,21.5,21.5,0,0,1,.411,5.686q0,2.784-.007,5.477c-.014,7.18-.026,13.87-.038,19.98s-.032,11.629-.047,16.484c-.043,2.407.153,4.716-.451,6.763a12.143,12.143,0,0,1-2.684,5.02,12.347,12.347,0,0,1-6.715,3.948,11.025,11.025,0,0,1-2.035.244C403.112,140.206,402.876,140.2,402.876,140.2Z" transform="translate(-342.144 -67.054)" fill="#263238"/>
                </g>
              </g>
            </g>
          </g>
        </g>
      </g>
    </g>
    <g id="Group_28985" data-name="Group 28985" transform="translate(1146.18 1227.493)">
      <g id="Group_28984" data-name="Group 28984" transform="translate(0)">
        <g id="Group_28983" data-name="Group 28983">
          <g id="Group_28982" data-name="Group 28982">
            <g id="Group_28981" data-name="Group 28981">
              <g id="Group_28978" data-name="Group 28978" transform="translate(0.308 0.311)">
                <rect id="Rectangle_10663" data-name="Rectangle 10663" width="72.832" height="72.832" rx="10.384" fill="#fff"/>
              </g>
              <g id="Group_28980" data-name="Group 28980">
                <g id="Group_28979" data-name="Group 28979">
                  <path id="Path_33606" data-name="Path 33606" d="M469.158,213.79a22.027,22.027,0,0,0,2.707-.369,12.374,12.374,0,0,0,6.56-3.985A11.94,11.94,0,0,0,481,204.5c.572-1.984.365-4.26.391-6.687-.014-4.855-.03-10.38-.047-16.484s-.024-12.8-.038-19.98q0-2.692-.008-5.477a21.029,21.029,0,0,0-.409-5.549,12.115,12.115,0,0,0-7.4-8.265,11.738,11.738,0,0,0-2.88-.713,26.056,26.056,0,0,0-3.045-.092l-6.272,0-12.936.007-27.2.006a12.2,12.2,0,0,0-6.422,1.855,11.541,11.541,0,0,0-2.559,2.15,11.33,11.33,0,0,0-1.867,2.744,11.806,11.806,0,0,0-1.047,3.124,16.931,16.931,0,0,0-.214,3.295q0,3.354,0,6.649c-.006,8.79-.012,17.267-.018,25.345q-.007,6.057-.013,11.8a30.874,30.874,0,0,0,.238,5.586,12.229,12.229,0,0,0,2.187,4.846,12.1,12.1,0,0,0,8.621,4.833c3.289.117,6.52.044,9.564.075l28.931.1,7.866.059,2.046.03c.46.011.7.032.7.032s-.237.021-.7.032l-2.046.031-7.866.057-28.931.1c-3.062-.018-6.233.071-9.607-.037a12.584,12.584,0,0,1-8.992-5,12.762,12.762,0,0,1-2.3-5.049,31.245,31.245,0,0,1-.263-5.692q-.005-5.738-.013-11.8c-.006-8.077-.012-16.555-.018-25.345q0-3.3,0-6.649a17.622,17.622,0,0,1,.222-3.408,12.413,12.413,0,0,1,1.1-3.285,11.944,11.944,0,0,1,1.96-2.885,12.146,12.146,0,0,1,2.689-2.26,12.8,12.8,0,0,1,6.753-1.95l27.2.006,12.936.007,6.272,0a27,27,0,0,1,3.114.1,12.344,12.344,0,0,1,3.016.753,12.675,12.675,0,0,1,7.728,8.663,21.547,21.547,0,0,1,.411,5.686q0,2.784-.008,5.477c-.013,7.181-.026,13.87-.038,19.98s-.032,11.629-.045,16.484c-.044,2.407.153,4.716-.452,6.763a12.13,12.13,0,0,1-2.684,5.02,12.343,12.343,0,0,1-6.715,3.948,11.016,11.016,0,0,1-2.035.244C469.393,213.8,469.158,213.79,469.158,213.79Z" transform="translate(-408.427 -140.647)" fill="#263238"/>
                </g>
              </g>
            </g>
          </g>
        </g>
      </g>
    </g>
    <g id="Group_28993" data-name="Group 28993" transform="translate(877.629 1175.961)">
      <g id="Group_28992" data-name="Group 28992">
        <g id="Group_28991" data-name="Group 28991">
          <g id="Group_28990" data-name="Group 28990">
            <g id="Group_28989" data-name="Group 28989">
              <g id="Group_28986" data-name="Group 28986" transform="translate(0.308 0.311)">
                <rect id="Rectangle_10664" data-name="Rectangle 10664" width="72.832" height="72.832" rx="10.384" fill="#fff"/>
              </g>
              <g id="Group_28988" data-name="Group 28988">
                <g id="Group_28987" data-name="Group 28987">
                  <path id="Path_33607" data-name="Path 33607" d="M244.438,170.67a22.224,22.224,0,0,0,2.707-.37,12.37,12.37,0,0,0,6.56-3.984,11.941,11.941,0,0,0,2.579-4.937c.572-1.985.365-4.262.391-6.687-.014-4.857-.03-10.38-.047-16.486s-.024-12.8-.038-19.979q0-2.694-.007-5.477a21.085,21.085,0,0,0-.41-5.55,12.117,12.117,0,0,0-7.4-8.265,11.848,11.848,0,0,0-2.88-.713,26.593,26.593,0,0,0-3.045-.092l-6.272,0-12.936.008-27.2.006A12.187,12.187,0,0,0,190.01,100a11.536,11.536,0,0,0-2.559,2.149,11.376,11.376,0,0,0-1.867,2.744,11.835,11.835,0,0,0-1.047,3.124,17.041,17.041,0,0,0-.215,3.3q0,3.352,0,6.649c-.006,8.788-.012,17.267-.018,25.343q-.007,6.057-.013,11.8a30.869,30.869,0,0,0,.238,5.584,12.216,12.216,0,0,0,10.808,9.68c3.289.116,6.52.043,9.564.075l28.931.1,7.866.059,2.046.031c.46.011.7.032.7.032s-.237.02-.7.031l-2.046.031-7.866.059-28.931.1c-3.062-.019-6.233.07-9.607-.037a12.588,12.588,0,0,1-8.992-5,12.775,12.775,0,0,1-2.3-5.05,31.238,31.238,0,0,1-.263-5.691q-.005-5.74-.013-11.8c-.006-8.076-.012-16.555-.018-25.343q0-3.3,0-6.649a17.625,17.625,0,0,1,.222-3.408,12.413,12.413,0,0,1,1.1-3.285,11.919,11.919,0,0,1,1.96-2.885,12.153,12.153,0,0,1,2.689-2.261,12.811,12.811,0,0,1,6.753-1.95l27.2.006,12.936.008,6.272,0a26.734,26.734,0,0,1,3.114.1,12.4,12.4,0,0,1,3.016.753,12.675,12.675,0,0,1,7.728,8.664,21.543,21.543,0,0,1,.411,5.686q0,2.782-.008,5.477c-.013,7.18-.026,13.87-.038,19.979s-.032,11.629-.045,16.486c-.044,2.407.153,4.716-.452,6.763a12.145,12.145,0,0,1-2.684,5.02,12.35,12.35,0,0,1-6.715,3.948,11.116,11.116,0,0,1-2.035.244C244.673,170.68,244.438,170.67,244.438,170.67Z" transform="translate(-183.707 -97.526)" fill="#263238"/>
                </g>
              </g>
            </g>
          </g>
        </g>
      </g>
    </g>
    <g id="Group_28995" data-name="Group 28995" transform="translate(1111.252 1265.387)">
      <g id="Group_28994" data-name="Group 28994">
        <path id="Path_33608" data-name="Path 33608" d="M416.129,172.668c0,.171-8.267.311-18.465.311s-18.465-.14-18.465-.311,8.265-.312,18.465-.312S416.129,172.5,416.129,172.668Z" transform="translate(-379.2 -172.356)" fill="#263238"/>
      </g>
    </g>
    <g id="Group_29007" data-name="Group 29007" transform="translate(888.947 1188.435)">
      <g id="Group_28996" data-name="Group 28996" transform="translate(0.598 38.758)">
        <rect id="Rectangle_10665" data-name="Rectangle 10665" width="9.19" height="7.036" fill="#f9865f"/>
      </g>
      <g id="Group_28997" data-name="Group 28997" transform="translate(12.229 22.532)">
        <rect id="Rectangle_10666" data-name="Rectangle 10666" width="9.19" height="23.262" fill="#f9865f"/>
      </g>
      <g id="Group_28998" data-name="Group 28998" transform="translate(25.009 32.547)">
        <rect id="Rectangle_10667" data-name="Rectangle 10667" width="9.19" height="13.247" fill="#f9865f"/>
      </g>
      <g id="Group_28999" data-name="Group 28999" transform="translate(37.214 15.783)">
        <rect id="Rectangle_10668" data-name="Rectangle 10668" width="9.19" height="30.011" fill="#f9865f"/>
      </g>
      <g id="Group_29000" data-name="Group 29000" transform="translate(0 22.363)">
        <path id="Path_33609" data-name="Path 33609" d="M197.754,135.826a4.575,4.575,0,1,1,4.575-4.575A4.581,4.581,0,0,1,197.754,135.826Zm0-7.954a3.38,3.38,0,1,0,3.38,3.38A3.384,3.384,0,0,0,197.754,127.872Z" transform="translate(-193.179 -126.677)" fill="#f9865f"/>
      </g>
      <g id="Group_29001" data-name="Group 29001" transform="translate(13.147 4.958)">
        <path id="Path_33610" data-name="Path 33610" d="M208.753,121.261a4.574,4.574,0,1,1,4.575-4.573A4.579,4.579,0,0,1,208.753,121.261Zm0-7.953a3.379,3.379,0,1,0,3.38,3.38A3.382,3.382,0,0,0,208.753,113.308Z" transform="translate(-204.18 -112.113)" fill="#f9865f"/>
      </g>
      <g id="Group_29002" data-name="Group 29002" transform="translate(25.036 15.981)">
        <path id="Path_33611" data-name="Path 33611" d="M218.7,130.485a4.574,4.574,0,1,1,4.575-4.575A4.58,4.58,0,0,1,218.7,130.485Zm0-7.953a3.379,3.379,0,1,0,3.38,3.378A3.383,3.383,0,0,0,218.7,122.532Z" transform="translate(-214.129 -121.337)" fill="#f9865f"/>
      </g>
      <g id="Group_29003" data-name="Group 29003" transform="translate(37.742)">
        <path id="Path_33612" data-name="Path 33612" d="M229.336,117.113a4.575,4.575,0,1,1,4.575-4.575A4.58,4.58,0,0,1,229.336,117.113Zm0-7.954a3.38,3.38,0,1,0,3.38,3.38A3.384,3.384,0,0,0,229.336,109.159Z" transform="translate(-224.761 -107.964)" fill="#f9865f"/>
      </g>
      <g id="Group_29004" data-name="Group 29004" transform="translate(31.744 7.135)">
        <rect id="Rectangle_10669" data-name="Rectangle 10669" width="12.837" height="1.195" transform="matrix(0.575, -0.818, 0.818, 0.575, 0, 10.503)" fill="#f9865f"/>
      </g>
      <g id="Group_29005" data-name="Group 29005" transform="translate(20.346 12.317)">
        <rect id="Rectangle_10670" data-name="Rectangle 10670" width="1.195" height="8.13" transform="matrix(0.723, -0.691, 0.691, 0.723, 0, 0.826)" fill="#f9865f"/>
      </g>
      <g id="Group_29006" data-name="Group 29006" transform="translate(6.304 12.589)">
        <rect id="Rectangle_10671" data-name="Rectangle 10671" width="13.509" height="1.195" transform="translate(0 10.671) rotate(-52.177)" fill="#f9865f"/>
      </g>
    </g>
    <g id="Group_29008" data-name="Group 29008" transform="translate(925.078 1246.481)">
      <path id="Path_33613" data-name="Path 33613" d="M230.378,160.018a3.482,3.482,0,1,1-3.482-3.482A3.482,3.482,0,0,1,230.378,160.018Z" transform="translate(-223.413 -156.536)" fill="#263238"/>
    </g>
    <g id="Group_29009" data-name="Group 29009" transform="translate(1012.295 1184.208)">
      <path id="Path_33614" data-name="Path 33614" d="M303.361,107.909a3.483,3.483,0,1,1-3.482-3.482A3.483,3.483,0,0,1,303.361,107.909Z" transform="translate(-296.395 -104.427)" fill="#263238"/>
    </g>
    <g id="Group_29010" data-name="Group 29010" transform="translate(1142.746 1262.216)">
      <path id="Path_33615" data-name="Path 33615" d="M412.519,173.185a3.482,3.482,0,1,1-3.482-3.482A3.482,3.482,0,0,1,412.519,173.185Z" transform="translate(-405.554 -169.703)" fill="#263238"/>
    </g>
    <g id="Group_29011" data-name="Group 29011" transform="translate(1101.117 1209.724)">
      <path id="Path_33616" data-name="Path 33616" d="M377.685,129.26a3.482,3.482,0,1,1-3.482-3.482A3.483,3.483,0,0,1,377.685,129.26Z" transform="translate(-370.72 -125.778)" fill="#263238"/>
    </g>
    <g id="Group_29024" data-name="Group 29024" transform="translate(907.35 1109.067)">
      <g id="Group_29018" data-name="Group 29018">
        <g id="Group_29017" data-name="Group 29017">
          <g id="Group_29016" data-name="Group 29016">
            <g id="Group_29015" data-name="Group 29015">
              <g id="Group_29012" data-name="Group 29012" transform="translate(0.304 0.311)">
                <rect id="Rectangle_10672" data-name="Rectangle 10672" width="47.222" height="47.222" rx="10.384" fill="#fff"/>
              </g>
              <g id="Group_29014" data-name="Group 29014">
                <g id="Group_29013" data-name="Group 29013">
                  <path id="Path_33617" data-name="Path 33617" d="M243.693,89.083c0-.041.59-.029,1.687-.191a11.859,11.859,0,0,0,4.527-1.63,12.225,12.225,0,0,0,5.98-10.239c.027-1.695,0-3.509,0-5.4-.011-3.793-.024-7.945-.037-12.4q-.005-1.671-.008-3.4a20.452,20.452,0,0,0-.172-3.456,11.179,11.179,0,0,0-1.054-3.354,11.409,11.409,0,0,0-2.04-2.978A12.2,12.2,0,0,0,246.13,42.4a19.461,19.461,0,0,0-3.9-.241l-4.054,0-16.882.006a12.106,12.106,0,0,0-11.842,9.577,18.624,18.624,0,0,0-.27,3.971q0,2.009,0,3.977-.005,3.935-.011,7.7t-.013,7.324a29.832,29.832,0,0,0,.1,3.472,12.79,12.79,0,0,0,.84,3.209,12.247,12.247,0,0,0,9.112,7.273,37.052,37.052,0,0,0,5.359.213q2.56.014,4.823.024l7.724.054,4.882.059,1.269.03a2.229,2.229,0,0,1,.433.032,2.228,2.228,0,0,1-.433.032l-1.269.031-4.882.057-7.724.054-4.823.024a36.97,36.97,0,0,1-5.433-.176,12.7,12.7,0,0,1-9.514-7.506,13.336,13.336,0,0,1-.893-3.344,30.128,30.128,0,0,1-.116-3.537q-.007-3.562-.013-7.324t-.011-7.7q0-1.968,0-3.977a19.279,19.279,0,0,1,.277-4.1A12.71,12.71,0,0,1,221.295,41.55l16.882.006,4.054,0a20.013,20.013,0,0,1,4.019.262,12.779,12.779,0,0,1,6.742,3.823,11.991,11.991,0,0,1,2.125,3.125,11.762,11.762,0,0,1,1.089,3.512,20.736,20.736,0,0,1,.164,3.542q0,1.726-.008,3.4c-.013,4.454-.026,8.606-.037,12.4-.016,1.9,0,3.7-.041,5.414a12.467,12.467,0,0,1-6.252,10.436,11.585,11.585,0,0,1-4.633,1.545A9.3,9.3,0,0,1,243.693,89.083Z" transform="translate(-208.577 -41.55)" fill="#263238"/>
                </g>
              </g>
            </g>
          </g>
        </g>
      </g>
      <g id="Group_29023" data-name="Group 29023" transform="translate(13.986 12.457)">
        <g id="Group_29022" data-name="Group 29022">
          <g id="Group_29021" data-name="Group 29021">
            <g id="Group_29020" data-name="Group 29020">
              <g id="Group_29019" data-name="Group 29019">
                <path id="Path_33618" data-name="Path 33618" d="M232.254,63.191a5.8,5.8,0,0,0,3.456-5.366,5.451,5.451,0,1,0-10.878-.05,5.794,5.794,0,0,0,3.466,5.416c-8.37,1.261-7.99,10.357-7.99,10.357l19.794.092S240.551,64.443,232.254,63.191Z" transform="translate(-220.275 -51.969)" fill="#0fd7ad"/>
                <path id="Path_33619" data-name="Path 33619" d="M240.134,73.674h-.029l-19.822-.091v-.029a13.036,13.036,0,0,1,.858-4.718,9.154,9.154,0,0,1,2.363-3.513,8.967,8.967,0,0,1,4.692-2.142,5.8,5.8,0,0,1-3.388-5.4,5.984,5.984,0,0,1,1.618-4.113,5.26,5.26,0,0,1,3.849-1.691h.025a5.667,5.667,0,0,1,5.446,5.856,5.814,5.814,0,0,1-3.378,5.351,8.721,8.721,0,0,1,4.639,2.153,9.134,9.134,0,0,1,2.316,3.545,13.34,13.34,0,0,1,.814,4.767Zm-19.794-.151,19.736.091a13.352,13.352,0,0,0-.811-4.716,9.06,9.06,0,0,0-2.3-3.521,8.69,8.69,0,0,0-4.71-2.152l-.105-.017.1-.041a5.751,5.751,0,0,0,3.437-5.338,5.608,5.608,0,0,0-5.386-5.8h-.025a5.2,5.2,0,0,0-3.805,1.672,5.921,5.921,0,0,0-1.6,4.073,5.733,5.733,0,0,0,3.448,5.39l.1.041-.106.017a8.931,8.931,0,0,0-4.763,2.142,9.1,9.1,0,0,0-2.347,3.488A13.058,13.058,0,0,0,220.341,73.523Z" transform="translate(-220.28 -51.974)" fill="#0fd7ad"/>
              </g>
            </g>
          </g>
        </g>
      </g>
    </g>
    <g id="Group_29032" data-name="Group 29032" transform="translate(1151.008 1322.285)">
      <g id="Group_29031" data-name="Group 29031">
        <g id="Group_29030" data-name="Group 29030">
          <g id="Group_29029" data-name="Group 29029">
            <g id="Group_29028" data-name="Group 29028">
              <g id="Group_29025" data-name="Group 29025" transform="translate(0.305 0.311)">
                <rect id="Rectangle_10673" data-name="Rectangle 10673" width="53.759" height="53.759" rx="10.384" fill="#fff"/>
              </g>
              <g id="Group_29027" data-name="Group 29027">
                <g id="Group_29026" data-name="Group 29026">
                  <path id="Path_33620" data-name="Path 33620" d="M454.123,274.038c0-.053.684-.007,1.948-.231a12.463,12.463,0,0,0,5.122-2.138A12.326,12.326,0,0,0,466,264.5a22.614,22.614,0,0,0,.331-5.506q-.011-2.961-.023-6.251c-.012-4.385-.024-9.184-.038-14.333q0-1.932-.007-3.931a20.72,20.72,0,0,0-.218-3.993,12.115,12.115,0,0,0-4.065-7.02,12.264,12.264,0,0,0-8-2.894l-9.282.007-19.518.006a12.122,12.122,0,0,0-12.109,12.13c-.006,6.305-.012,12.387-.018,18.183q-.007,4.345-.013,8.467a28.708,28.708,0,0,0,.134,4.011,11.345,11.345,0,0,0,1.132,3.656,12.247,12.247,0,0,0,4.951,5.222,12.606,12.606,0,0,0,6.493,1.561l20.757.1,5.643.059,1.468.03a2.977,2.977,0,0,1,.5.032,2.987,2.987,0,0,1-.5.032l-1.468.03-5.643.059-20.757.1a13.053,13.053,0,0,1-6.727-1.581,12.726,12.726,0,0,1-5.178-5.411,11.844,11.844,0,0,1-1.2-3.81,29.184,29.184,0,0,1-.154-4.087q-.005-4.117-.013-8.467c0-5.8-.012-11.878-.018-18.183a12.728,12.728,0,0,1,12.719-12.751l19.518.006,9.282.007a12.848,12.848,0,0,1,8.37,3.053,12.668,12.668,0,0,1,4.232,7.357,21.262,21.262,0,0,1,.21,4.092q0,2-.008,3.931c-.013,5.149-.026,9.949-.038,14.333q-.011,3.286-.021,6.251a22.748,22.748,0,0,1-.388,5.587,12.528,12.528,0,0,1-5.01,7.281,12.247,12.247,0,0,1-5.241,2.064,8.723,8.723,0,0,1-1.468.115A2.953,2.953,0,0,1,454.123,274.038Z" transform="translate(-412.468 -219.968)" fill="#263238"/>
                </g>
              </g>
            </g>
          </g>
        </g>
      </g>
    </g>
    <g id="Group_29045" data-name="Group 29045" transform="translate(905.619 1310.233)">
      <g id="Group_29039" data-name="Group 29039">
        <g id="Group_29038" data-name="Group 29038">
          <g id="Group_29037" data-name="Group 29037">
            <g id="Group_29036" data-name="Group 29036">
              <g id="Group_29033" data-name="Group 29033" transform="translate(0.305 0.311)">
                <rect id="Rectangle_10674" data-name="Rectangle 10674" width="53.759" height="53.759" rx="10.384" fill="#fff"/>
              </g>
              <g id="Group_29035" data-name="Group 29035">
                <g id="Group_29034" data-name="Group 29034">
                  <path id="Path_33621" data-name="Path 33621" d="M248.783,263.953c0-.053.685-.007,1.949-.232a12.464,12.464,0,0,0,5.122-2.137,12.336,12.336,0,0,0,4.811-7.165,22.617,22.617,0,0,0,.33-5.506q-.011-2.963-.023-6.251c-.011-4.385-.024-9.184-.037-14.333q-.005-1.932-.008-3.93a20.818,20.818,0,0,0-.216-3.993,12.122,12.122,0,0,0-4.066-7.02,12.27,12.27,0,0,0-8-2.894l-9.282.007-19.516.006a12.122,12.122,0,0,0-12.109,12.13c-.007,6.305-.013,12.387-.018,18.183q-.007,4.345-.013,8.467a28.707,28.707,0,0,0,.133,4.011,11.316,11.316,0,0,0,1.133,3.656,12.24,12.24,0,0,0,4.951,5.222,12.6,12.6,0,0,0,6.492,1.561l20.757.1,5.643.059,1.467.03a2.963,2.963,0,0,1,.5.032,2.963,2.963,0,0,1-.5.032c-.36.007-.846.017-1.467.031l-5.643.057-20.757.1a13.036,13.036,0,0,1-6.726-1.582,12.719,12.719,0,0,1-5.179-5.41,11.874,11.874,0,0,1-1.2-3.81,29.179,29.179,0,0,1-.153-4.087q-.007-4.118-.013-8.467c-.006-5.8-.012-11.878-.018-18.183a12.728,12.728,0,0,1,12.719-12.751l19.516.006,9.282.007a12.846,12.846,0,0,1,8.37,3.053,12.668,12.668,0,0,1,4.232,7.357,21.263,21.263,0,0,1,.21,4.092q0,2-.007,3.93c-.014,5.149-.027,9.949-.038,14.333q-.013,3.286-.023,6.251A22.806,22.806,0,0,1,261,254.5a12.529,12.529,0,0,1-5.011,7.281,12.248,12.248,0,0,1-5.241,2.064,8.826,8.826,0,0,1-1.467.114A2.891,2.891,0,0,1,248.783,263.953Z" transform="translate(-207.13 -209.883)" fill="#263238"/>
                </g>
              </g>
            </g>
          </g>
        </g>
      </g>
      <g id="Group_29044" data-name="Group 29044" transform="translate(15.913 14.172)">
        <g id="Group_29043" data-name="Group 29043">
          <g id="Group_29042" data-name="Group 29042">
            <g id="Group_29041" data-name="Group 29041">
              <g id="Group_29040" data-name="Group 29040">
                <path id="Path_33622" data-name="Path 33622" d="M234.051,234.482a6.6,6.6,0,0,0,3.934-6.108,6.205,6.205,0,1,0-12.384-.057,6.592,6.592,0,0,0,3.945,6.165c-9.528,1.436-9.1,11.793-9.1,11.793l22.534.1S243.5,235.909,234.051,234.482Z" transform="translate(-220.446 -221.742)" fill="#0fd7ad"/>
              </g>
            </g>
          </g>
        </g>
      </g>
    </g>
    <g id="Group_29048" data-name="Group 29048" transform="translate(997.75 1134.007)">
      <g id="Group_29046" data-name="Group 29046">
        <path id="Path_33623" data-name="Path 33623" d="M297.494,88.98a13.279,13.279,0,1,1,12.647-9.2h0A13.3,13.3,0,0,1,297.494,88.98Zm.017-24.17a10.889,10.889,0,1,0,10.354,14.233h0A10.89,10.89,0,0,0,297.511,64.81Z" transform="translate(-284.222 -62.42)" fill="#f9865f"/>
      </g>
      <g id="Group_29047" data-name="Group 29047" transform="translate(19.782 21.398)">
        <path id="Path_33624" data-name="Path 33624" d="M311.841,93.462a1.2,1.2,0,0,1-.881-.386l-9.869-10.748a1.194,1.194,0,1,1,1.759-1.616l9.87,10.747a1.194,1.194,0,0,1-.88,2Z" transform="translate(-300.776 -80.325)" fill="#f9865f"/>
      </g>
    </g>
    <g id="Group_29055" data-name="Group 29055" transform="translate(1161.688 1242.042)">
      <g id="Group_29049" data-name="Group 29049" transform="translate(0)">
        <path id="Path_33625" data-name="Path 33625" d="M443.554,197.12A22.149,22.149,0,1,1,465.7,174.971,22.174,22.174,0,0,1,443.554,197.12Zm0-43.1a20.954,20.954,0,1,0,20.954,20.954A20.978,20.978,0,0,0,443.554,154.017Z" transform="translate(-421.405 -152.822)" fill="#073570"/>
      </g>
      <g id="Group_29050" data-name="Group 29050" transform="translate(10.598 0.061)">
        <path id="Path_33626" data-name="Path 33626" d="M441.157,197.036a20.727,20.727,0,0,1-5.679-5.228,26.171,26.171,0,0,1-5.183-17.3c.306-8.326,3.469-13.755,6.068-16.844a19.6,19.6,0,0,1,5.685-4.792l.528,1.072c-.105.053-10.526,5.388-11.086,20.609s10.141,21.377,10.249,21.438Z" transform="translate(-430.274 -152.873)" fill="#073570"/>
      </g>
      <g id="Group_29051" data-name="Group 29051" transform="translate(21.106 0.057)">
        <path id="Path_33627" data-name="Path 33627" d="M440.424,197.022l-.629-1.017c.1-.065,10.47-6.673,9.907-21.906-.558-15.208-10.536-20.1-10.636-20.148l.508-1.08c.439.2,10.735,5.214,11.323,21.185C451.486,190.008,440.535,196.954,440.424,197.022Z" transform="translate(-439.066 -152.87)" fill="#073570"/>
      </g>
      <g id="Group_29052" data-name="Group 29052" transform="translate(4.419 8.584)">
        <path id="Path_33628" data-name="Path 33628" d="M443.125,166.547c-8.971,0-14.753-3.045-18.022-5.6l.735-.942c3.124,2.439,8.657,5.347,17.288,5.347,8.352,0,13.645-2.893,16.615-5.319l.756.925C457.376,163.508,451.829,166.547,443.125,166.547Z" transform="translate(-425.103 -160.005)" fill="#073570"/>
      </g>
      <g id="Group_29053" data-name="Group 29053" transform="translate(4.453 28.673)">
        <path id="Path_33629" data-name="Path 33629" d="M459.791,183.2c-3.123-2.367-8.659-5.19-17.295-5.19-8.356,0-13.651,2.807-16.622,5.163l-.743-.936c3.121-2.474,8.665-5.422,17.365-5.422,8.969,0,14.748,2.954,18.016,5.433Z" transform="translate(-425.131 -176.815)" fill="#073570"/>
      </g>
      <g id="Group_29054" data-name="Group 29054" transform="translate(1.134 21.617)">
        <rect id="Rectangle_10675" data-name="Rectangle 10675" width="42.597" height="1.195" fill="#073570"/>
      </g>
    </g>
    <g id="Group_29070" data-name="Group 29070" transform="translate(1074.34 1403.493)">
      <g id="Group_29062" data-name="Group 29062" transform="translate(8.276 28.797)">
        <g id="Group_29056" data-name="Group 29056">
          <rect id="Rectangle_10676" data-name="Rectangle 10676" width="30.306" height="30.306" fill="#0fd7ad"/>
        </g>
        <g id="Group_29057" data-name="Group 29057" transform="translate(37.946 1.842)">
          <rect id="Rectangle_10677" data-name="Rectangle 10677" width="31.211" height="2.593" fill="#0fd7ad"/>
        </g>
        <g id="Group_29058" data-name="Group 29058" transform="translate(37.946 7.835)">
          <rect id="Rectangle_10678" data-name="Rectangle 10678" width="31.211" height="2.593" fill="#0fd7ad"/>
        </g>
        <g id="Group_29059" data-name="Group 29059" transform="translate(37.946 13.829)">
          <rect id="Rectangle_10679" data-name="Rectangle 10679" width="31.211" height="2.593" fill="#0fd7ad"/>
        </g>
        <g id="Group_29060" data-name="Group 29060" transform="translate(37.946 19.823)">
          <rect id="Rectangle_10680" data-name="Rectangle 10680" width="31.211" height="2.593" fill="#0fd7ad"/>
        </g>
        <g id="Group_29061" data-name="Group 29061" transform="translate(37.946 25.817)">
          <rect id="Rectangle_10681" data-name="Rectangle 10681" width="31.211" height="2.593" fill="#0fd7ad"/>
        </g>
      </g>
      <g id="Group_29063" data-name="Group 29063" transform="translate(0.313 0.312)">
        <path id="Rectangle_10682" data-name="Rectangle 10682" d="M6.951,0H75.716a7.051,7.051,0,0,1,7.051,7.051V20.266a0,0,0,0,1,0,0H0a0,0,0,0,1,0,0V6.951A6.951,6.951,0,0,1,6.951,0Z" fill="#17a9fe"/>
      </g>
      <g id="Group_29069" data-name="Group 29069">
        <g id="Group_29068" data-name="Group 29068">
          <g id="Group_29067" data-name="Group 29067">
            <g id="Group_29066" data-name="Group 29066">
              <g id="Group_29065" data-name="Group 29065">
                <g id="Group_29064" data-name="Group 29064">
                  <path id="Path_33630" data-name="Path 33630" d="M423.67,361.066a8.968,8.968,0,0,0,2.925-.644,7.768,7.768,0,0,0,2.891-2.146,7.559,7.559,0,0,0,1.764-4.517c-.019-7.556-.045-18.453-.078-31.91-.012-6.739-.025-14.119-.038-22.04q0-1.486,0-3a8.818,8.818,0,0,0-.331-2.936,7.558,7.558,0,0,0-6.689-5.336c-1.029-.055-2.137-.013-3.212-.025l-6.6.007-57.965.024a7.3,7.3,0,0,0-6.215,3.328,7.252,7.252,0,0,0-1.157,3.409c-.059,1.211-.017,2.5-.03,3.744q0,7.511,0,14.79c-.006,9.7-.012,19.048-.018,27.958q0,3.341-.006,6.6,0,1.628,0,3.234a15.674,15.674,0,0,0,.151,3.124,7.608,7.608,0,0,0,6.019,5.937,15.719,15.719,0,0,0,2.939.141l22.041.038,31.916.1,8.677.059,2.256.031c.508.011.768.032.768.032s-.26.022-.768.031l-2.256.031-8.677.059-31.916.1-22.041.038a16.2,16.2,0,0,1-3.037-.142,8.137,8.137,0,0,1-6.458-6.343,16.144,16.144,0,0,1-.168-3.233q0-1.606,0-3.234,0-3.255-.006-6.6c-.006-8.91-.012-18.263-.018-27.958q0-7.272,0-14.79c.013-1.262-.031-2.484.031-3.792a7.866,7.866,0,0,1,1.255-3.7,7.915,7.915,0,0,1,6.735-3.611l57.965.025,6.6.006c1.093.014,2.143-.027,3.253.033a8.1,8.1,0,0,1,7.158,5.734,9.4,9.4,0,0,1,.345,3.09q0,1.511,0,3c-.014,7.921-.026,15.3-.038,22.04-.038,13.478-.041,24.375-.121,31.923a7.727,7.727,0,0,1-1.864,4.624,7.655,7.655,0,0,1-5.185,2.664C423.931,361.074,423.67,361.066,423.67,361.066Z" transform="translate(-348.312 -287.922)" fill="#263238"/>
                </g>
              </g>
            </g>
          </g>
        </g>
      </g>
    </g>
    <g id="Group_29071" data-name="Group 29071" transform="translate(1113.596 1400.323)">
      <path id="Path_33631" data-name="Path 33631" d="M388.128,288.751a3.483,3.483,0,1,1-3.482-3.482A3.483,3.483,0,0,1,388.128,288.751Z" transform="translate(-381.162 -285.269)" fill="#263238"/>
    </g>
    <g id="Group_29072" data-name="Group 29072" transform="translate(1165.014 1337.424)">
      <path id="Path_33632" data-name="Path 33632" d="M424.187,254.006a17.223,17.223,0,0,0,9.327,2.734c11.3,0,17.682-9.542,17.3-18.1a12.356,12.356,0,0,0,3.037-3.15,12.175,12.175,0,0,1-3.5.958,6.1,6.1,0,0,0,2.676-3.366,12.2,12.2,0,0,1-3.864,1.477,6.09,6.09,0,0,0-10.371,5.551,17.276,17.276,0,0,1-12.542-6.359,6.093,6.093,0,0,0,1.883,8.125,6.061,6.061,0,0,1-2.757-.762,6.093,6.093,0,0,0,4.881,6.045,6.1,6.1,0,0,1-2.746.1,6.085,6.085,0,0,0,5.684,4.226A12.229,12.229,0,0,1,424.187,254.006Z" transform="translate(-424.187 -232.636)" fill="#455a64"/>
    </g>
    <path id="Path_33633" data-name="Path 33633" d="M404.422,103.159c1.834,6.4-2.336,12.669-8.9,12.669H361.01a8.472,8.472,0,0,1-8.07-11.684,9.129,9.129,0,0,1,9.9-5.378,15.669,15.669,0,0,1,30.334-3.337S402.069,94.947,404.422,103.159Z" transform="translate(726.809 1075.987)" fill="#ff6d66"/>
    <path id="Path_33634" data-name="Path 33634" d="M372.463,120.29V107.041h-5.19a.751.751,0,0,1-.612-1.184L375.205,93.8a.75.75,0,0,1,1.223,0l8.534,11.961a.75.75,0,0,1-.611,1.185H379.3V120.29Z" transform="translate(729.58 1077.646)" fill="#fff"/>
    <path id="Path_33635" data-name="Path 33635" d="M425,271.721l-15.6-54.906H273.052l-17.767,54.722a5.121,5.121,0,0,0,4.816,6.732H322.38l2.522-2.522h29.416l2.522,2.522h63.294A5.118,5.118,0,0,0,425,271.721Z" transform="translate(707.834 1101.702)" fill="#e0e0e0"/>
    <path id="Path_33636" data-name="Path 33636" d="M425,271.721l-15.6-54.906H273.052l-17.767,54.722a5.121,5.121,0,0,0,4.816,6.732H322.38l2.522-2.522h29.416l2.522,2.522h63.294A5.118,5.118,0,0,0,425,271.721Z" transform="translate(707.834 1101.702)"/>
    <path id="Path_33637" data-name="Path 33637" d="M270.061,229.725V149.163a5.765,5.765,0,0,1,5.748-5.782h125.3a5.766,5.766,0,0,1,5.749,5.782v80.563Z" transform="translate(710.766 1087.379)" fill="#91ba83"/>
    <g id="Group_29079" data-name="Group 29079" transform="translate(989.098 1238.73)">
      <rect id="Rectangle_10683" data-name="Rectangle 10683" width="120.254" height="71.638" fill="#fad8b0"/>
    </g>
    <g id="Group_29081" data-name="Group 29081" transform="translate(988.785 1238.419)">
      <g id="Group_29080" data-name="Group 29080">
        <path id="Path_33638" data-name="Path 33638" d="M397.287,221.74s-.017-.451-.025-1.3-.016-2.122-.027-3.762c-.014-3.308-.035-8.148-.061-14.357-.03-12.419-.074-30.3-.128-52.216l.241.241-120.244.069h-.01l.311-.311c-.007,25.372-.016,49.592-.022,71.638l-.289-.289,86.491.141,24.833.078,6.623.036,1.714.017c.387.006.593.018.593.018s-.183.011-.558.017l-1.681.017-6.564.036-24.769.078-86.681.141h-.289v-.289c-.006-22.046-.014-46.266-.022-71.638v-.312h.321l120.244.071h.243v.241c-.053,21.983-.1,39.912-.128,52.366-.026,6.186-.047,11.008-.061,14.3-.012,1.619-.02,2.861-.026,3.718C397.3,221.324,397.287,221.74,397.287,221.74Z" transform="translate(-276.721 -149.79)" fill="#263238"/>
      </g>
    </g>
    <path id="Path_33639" data-name="Path 33639" d="M329.873,147.245a2.217,2.217,0,1,1-2.216-2.175A2.2,2.2,0,0,1,329.873,147.245Z" transform="translate(721.566 1087.708)" fill="#263238"/>
    <path id="Path_33640" data-name="Path 33640" d="M425,270.022l-15.6-54.906H273.052L255.285,269.84a5.121,5.121,0,0,0,4.816,6.731H322.38l2.522-2.522h29.416l2.522,2.522h63.294A5.118,5.118,0,0,0,425,270.022Z" transform="translate(707.834 1101.37)" fill="#91ba83"/>
    <path id="Path_33641" data-name="Path 33641" d="M397.521,218.129l-118.835-.4A2.77,2.77,0,0,0,276,219.382l-9.524,27.025c-.517,1.47.819,2.937,2.672,2.937H406.661c1.846,0,3.181-1.457,2.677-2.923l-9.15-26.623A2.756,2.756,0,0,0,397.521,218.129Z" transform="translate(710.045 1101.879)" fill="#ebebeb"/>
    <path id="Path_33642" data-name="Path 33642" d="M353.366,264.312H306.46a3.161,3.161,0,0,1-2.845-4.024l2.649-11.091a3,3,0,0,1,2.847-2.4h41.9a3.008,3.008,0,0,1,2.865,2.486l2.357,11.091A3.155,3.155,0,0,1,353.366,264.312Z" transform="translate(717.291 1107.55)" fill="#073570"/>
    <path id="Path_33643" data-name="Path 33643" d="M346.763,226.246l-1.221-5.655a.843.843,0,0,0-.825-.664H337.4a.843.843,0,0,0-.834.962l.808,5.666a.843.843,0,0,0,.837.724l7.728-.011A.844.844,0,0,0,346.763,226.246Z" transform="translate(723.734 1102.309)" fill="#383838"/>
    <path id="Path_33644" data-name="Path 33644" d="M328.23,226.378l-.521-5.685a.844.844,0,0,0-.84-.766h-7.476a.843.843,0,0,0-.843.874l.209,5.7a.844.844,0,0,0,.844.813l7.788-.011A.844.844,0,0,0,328.23,226.378Z" transform="translate(720.225 1102.309)" fill="#383838"/>
    <path id="Path_33645" data-name="Path 33645" d="M338.165,226.32l-.808-5.669a.844.844,0,0,0-.835-.724h-8.6a.843.843,0,0,0-.84.92l.521,5.681a.844.844,0,0,0,.841.767l8.891-.013A.842.842,0,0,0,338.165,226.32Z" transform="translate(721.887 1102.309)" fill="#383838"/>
    <path id="Path_33646" data-name="Path 33646" d="M292.276,226.472l1.156-5.164a1.135,1.135,0,0,0-1.108-1.381h-7.085a1.134,1.134,0,0,0-1.091.822l-1.478,5.175a1.135,1.135,0,0,0,1.092,1.446l7.408-.011A1.135,1.135,0,0,0,292.276,226.472Z" transform="translate(713.217 1102.309)" fill="#383838"/>
    <path id="Path_33647" data-name="Path 33647" d="M379.97,226.068l-2.152-5.6a.841.841,0,0,0-.788-.54h-13.9a.844.844,0,0,0-.791,1.138l2.093,5.62a.844.844,0,0,0,.791.55l13.965-.019A.844.844,0,0,0,379.97,226.068Z" transform="translate(728.754 1102.309)" fill="#383838"/>
    <path id="Path_33648" data-name="Path 33648" d="M318.5,219.927H310.41a.842.842,0,0,0-.842.8l-.276,5.712a.844.844,0,0,0,.844.884l8.572-.012a.843.843,0,0,0,.841-.875l-.209-5.7A.843.843,0,0,0,318.5,219.927Z" transform="translate(718.416 1102.309)" fill="#383838"/>
    <path id="Path_33649" data-name="Path 33649" d="M283.363,219.927h-5.638a1.135,1.135,0,0,0-1.068.75l-1.861,5.188a1.134,1.134,0,0,0,1.07,1.518l6.019-.008a1.138,1.138,0,0,0,1.09-.823l1.479-5.178A1.135,1.135,0,0,0,283.363,219.927Z" transform="translate(711.676 1102.309)" fill="#383838"/>
    <path id="Path_33650" data-name="Path 33650" d="M300.99,226.61l.749-5.73a.843.843,0,0,0-.837-.952H293.71a.843.843,0,0,0-.823.658l-1.286,5.742a.845.845,0,0,0,.825,1.028l7.73-.012A.841.841,0,0,0,300.99,226.61Z" transform="translate(714.963 1102.309)" fill="#383838"/>
    <path id="Path_33651" data-name="Path 33651" d="M301.084,220.661l-.749,5.727a.845.845,0,0,0,.838.954l8.006-.012a.843.843,0,0,0,.841-.8l.276-5.716a.844.844,0,0,0-.844-.883H301.92A.841.841,0,0,0,301.084,220.661Z" transform="translate(716.67 1102.309)" fill="#383838"/>
    <path id="Path_33652" data-name="Path 33652" d="M356.116,226.17l-1.672-5.639a.844.844,0,0,0-.809-.6h-7.8a.843.843,0,0,0-.825,1.021l1.22,5.651a.844.844,0,0,0,.826.666l8.251-.012A.843.843,0,0,0,356.116,226.17Z" transform="translate(725.381 1102.309)" fill="#383838"/>
    <path id="Path_33653" data-name="Path 33653" d="M364.767,226.1l-2.094-5.625a.844.844,0,0,0-.791-.549H354.72a.843.843,0,0,0-.809,1.083l1.672,5.636a.844.844,0,0,0,.81.6l7.584-.011A.844.844,0,0,0,364.767,226.1Z" transform="translate(727.113 1102.309)" fill="#383838"/>
    <path id="Path_33654" data-name="Path 33654" d="M318.884,227.184h-8.823a.843.843,0,0,0-.843.8l-.284,5.894a.842.842,0,0,0,.844.883l9.324-.012a.842.842,0,0,0,.841-.875l-.216-5.88A.842.842,0,0,0,318.884,227.184Z" transform="translate(718.348 1103.724)" fill="#383838"/>
    <path id="Path_33655" data-name="Path 33655" d="M367.641,233.538l-2.158-5.8a.845.845,0,0,0-.79-.55h-7.819a.844.844,0,0,0-.809,1.084l1.723,5.81a.844.844,0,0,0,.81.6l8.253-.011A.844.844,0,0,0,367.641,233.538Z" transform="translate(727.533 1103.725)" fill="#383838"/>
    <path id="Path_33656" data-name="Path 33656" d="M358.435,233.608l-1.724-5.815a.844.844,0,0,0-.809-.6h-8.5a.843.843,0,0,0-.825,1.022l1.258,5.827a.846.846,0,0,0,.826.666l8.964-.012A.843.843,0,0,0,358.435,233.608Z" transform="translate(725.686 1103.725)" fill="#383838"/>
    <path id="Path_33657" data-name="Path 33657" d="M300.2,234.779l8.735-.012a.842.842,0,0,0,.841-.8l.284-5.9a.843.843,0,0,0-.842-.884h-8.246a.843.843,0,0,0-.837.735l-.773,5.911A.844.844,0,0,0,300.2,234.779Z" transform="translate(716.48 1103.724)" fill="#383838"/>
    <path id="Path_33658" data-name="Path 33658" d="M319.877,234.747l8.273-.011a.843.843,0,0,0,.839-.92l-.538-5.865a.843.843,0,0,0-.84-.766H319.66a.843.843,0,0,0-.842.875l.215,5.876A.844.844,0,0,0,319.877,234.747Z" transform="translate(720.275 1103.724)" fill="#383838"/>
    <path id="Path_33659" data-name="Path 33659" d="M327.745,228.106l.537,5.861a.842.842,0,0,0,.841.766l9.342-.012a.843.843,0,0,0,.834-.962l-.834-5.847a.843.843,0,0,0-.834-.725h-9.045A.844.844,0,0,0,327.745,228.106Z" transform="translate(722.018 1103.724)" fill="#383838"/>
    <path id="Path_33660" data-name="Path 33660" d="M348.473,233.684l-1.26-5.831a.843.843,0,0,0-.825-.666h-7.952a.844.844,0,0,0-.835.962l.834,5.844a.843.843,0,0,0,.837.724l8.377-.011A.844.844,0,0,0,348.473,233.684Z" transform="translate(723.938 1103.725)" fill="#383838"/>
    <path id="Path_33661" data-name="Path 33661" d="M292.81,227.18l-17.617,0a.845.845,0,0,0-.788.54l-2.294,5.957a.844.844,0,0,0,.789,1.147l18.584-.025a.843.843,0,0,0,.822-.658l1.328-5.931A.844.844,0,0,0,292.81,227.18Z" transform="translate(711.154 1103.724)" fill="#383838"/>
    <path id="Path_33662" data-name="Path 33662" d="M290.767,234.794l8.554-.011a.841.841,0,0,0,.835-.734l.773-5.914a.844.844,0,0,0-.837-.954h-8a.844.844,0,0,0-.823.66l-1.327,5.926A.843.843,0,0,0,290.767,234.794Z" transform="translate(714.639 1103.724)" fill="#383838"/>
    <path id="Path_33663" data-name="Path 33663" d="M374.989,234.661l5.508-.007a.844.844,0,0,0,.782-1.158l-2.32-5.774a.843.843,0,0,0-.783-.529h-5.062a.843.843,0,0,0-.8,1.1l1.875,5.783A.844.844,0,0,0,374.989,234.661Z" transform="translate(730.701 1103.726)" fill="#383838"/>
    <path id="Path_33664" data-name="Path 33664" d="M374.372,233.561l-1.876-5.786a.842.842,0,0,0-.8-.583h-5.865a.843.843,0,0,0-.79,1.138l2.156,5.794a.844.844,0,0,0,.792.55l5.584-.007A.843.843,0,0,0,374.372,233.561Z" transform="translate(729.281 1103.726)" fill="#383838"/>
    <path id="Path_33665" data-name="Path 33665" d="M299.592,243.268l8.659.014a1.272,1.272,0,0,0,1.272-1.209l.3-6.156a1.269,1.269,0,0,0-1.268-1.331H300.4a1.27,1.27,0,0,0-1.26,1.107l-.8,6.14A1.27,1.27,0,0,0,299.592,243.268Z" transform="translate(716.277 1105.168)" fill="#383838"/>
    <path id="Path_33666" data-name="Path 33666" d="M382.462,234.586h-13.3a1.27,1.27,0,0,0-1.19,1.714l2.337,6.28a1.27,1.27,0,0,0,1.188.827l13.417.022A1.271,1.271,0,0,0,386.1,241.7l-2.456-6.3A1.272,1.272,0,0,0,382.462,234.586Z" transform="translate(729.85 1105.168)" fill="#383838"/>
    <path id="Path_33667" data-name="Path 33667" d="M289.558,235.579l-1.37,6.121a1.269,1.269,0,0,0,1.237,1.548l8.566.014a1.269,1.269,0,0,0,1.262-1.105l.8-6.135a1.271,1.271,0,0,0-1.26-1.435h-8A1.272,1.272,0,0,0,289.558,235.579Z" transform="translate(714.297 1105.168)" fill="#383838"/>
    <path id="Path_33668" data-name="Path 33668" d="M279.9,235.507l-1.807,6.322a1.1,1.1,0,0,0,1.052,1.4l8.748.014a1.1,1.1,0,0,0,1.072-.857l1.442-6.446a1.1,1.1,0,0,0-1.084-1.335l-8.384.11A1.1,1.1,0,0,0,279.9,235.507Z" transform="translate(712.324 1105.171)" fill="#383838"/>
    <path id="Path_33669" data-name="Path 33669" d="M348.273,236.125l1.347,6.239a1.272,1.272,0,0,0,1.24,1l8.87.014a1.271,1.271,0,0,0,1.22-1.631l-1.856-6.255a1.269,1.269,0,0,0-1.218-.909h-8.362A1.271,1.271,0,0,0,348.273,236.125Z" transform="translate(726.016 1105.168)" fill="#383838"/>
    <path id="Path_33670" data-name="Path 33670" d="M308.847,235.8l-.3,6.16a1.272,1.272,0,0,0,1.268,1.332l45.146.073a1.271,1.271,0,0,0,1.244-1.538l-1.347-6.235a1.271,1.271,0,0,0-1.242-1h-43.5A1.272,1.272,0,0,0,308.847,235.8Z" transform="translate(718.273 1105.168)" fill="#383838"/>
    <path id="Path_33671" data-name="Path 33671" d="M271.749,235.246l-2.432,6.61a1.008,1.008,0,0,0,.944,1.356l7.335.012a1.009,1.009,0,0,0,.97-.731l1.892-6.622a1.007,1.007,0,0,0-.968-1.285h-6.8A1.009,1.009,0,0,0,271.749,235.246Z" transform="translate(710.609 1105.168)" fill="#383838"/>
    <path id="Path_33672" data-name="Path 33672" d="M358.4,236.218l1.856,6.26a1.27,1.27,0,0,0,1.215.909l8.1.013a1.271,1.271,0,0,0,1.193-1.714l-2.335-6.273a1.27,1.27,0,0,0-1.19-.828h-7.618A1.271,1.271,0,0,0,358.4,236.218Z" transform="translate(727.986 1105.168)" fill="#383838"/>
    <path id="Path_33673" data-name="Path 33673" d="M406.9,215.339c0,.172-30.568.312-68.267.312s-68.273-.14-68.273-.312,30.561-.311,68.273-.311S406.9,215.167,406.9,215.339Z" transform="translate(710.824 1101.354)" fill="#263238"/>
    <g id="Group_29125" data-name="Group 29125" transform="translate(1012.043 1251.006)">
      <g id="Group_29124" data-name="Group 29124">
        <g id="Group_29123" data-name="Group 29123">
          <g id="Group_29122" data-name="Group 29122">
            <path id="Path_33674" data-name="Path 33674" d="M306.923,168.625a18.233,18.233,0,0,1,4.121-2.574l.256-4.5,7.35-1.231,1.707,4.168a18.211,18.211,0,0,1,4.735,1.091l3.359-3,6.067,4.327-1.739,4.152a18.218,18.218,0,0,1,2.573,4.122l4.5.256,1.231,7.35L336.91,184.5a18.248,18.248,0,0,1-1.09,4.734l3,3.36-4.326,6.067-4.153-1.74a18.26,18.26,0,0,1-4.121,2.574l-.257,4.5-7.35,1.231-1.707-4.168a18.319,18.319,0,0,1-4.735-1.091l-3.359,3-6.067-4.327,1.74-4.153a18.258,18.258,0,0,1-2.574-4.121l-4.5-.256-1.231-7.35,4.168-1.708a18.25,18.25,0,0,1,1.091-4.734l-3-3.36,4.326-6.067,4.154,1.74Zm5.4,9.229a7.994,7.994,0,1,0,11.15-1.868A7.995,7.995,0,0,0,312.319,177.854Z" transform="translate(-296.182 -160.323)" fill="#f9865f"/>
          </g>
        </g>
      </g>
    </g>
    <g id="Group_29131" data-name="Group 29131" transform="translate(1056.012 1272.406)">
      <g id="Group_29130" data-name="Group 29130">
        <g id="Group_29129" data-name="Group 29129">
          <g id="Group_29128" data-name="Group 29128">
            <path id="Path_33675" data-name="Path 33675" d="M340.246,183.85a12.363,12.363,0,0,1,2.789-1.742l.173-3.045,4.976-.833,1.156,2.822a12.4,12.4,0,0,1,3.205.739l2.274-2.029,4.109,2.929L357.75,185.5a12.28,12.28,0,0,1,1.742,2.789l3.045.173.833,4.976-2.821,1.156a12.351,12.351,0,0,1-.739,3.205l2.029,2.275-2.929,4.107-2.811-1.177a12.4,12.4,0,0,1-2.79,1.742l-.173,3.044-4.976.834L347,205.8a12.351,12.351,0,0,1-3.205-.739l-2.274,2.03-4.109-2.93,1.178-2.811a12.329,12.329,0,0,1-1.742-2.79l-3.045-.173-.833-4.975,2.821-1.157a12.4,12.4,0,0,1,.739-3.205l-2.029-2.274,2.929-4.107,2.812,1.177ZM343.9,190.1a5.412,5.412,0,1,0,7.548-1.264A5.411,5.411,0,0,0,343.9,190.1Z" transform="translate(-332.974 -178.23)" fill="#f9865f"/>
          </g>
        </g>
      </g>
    </g>
    <g id="Group_29137" data-name="Group 29137" transform="translate(1054.512 1243.953)">
      <g id="Group_29136" data-name="Group 29136">
        <g id="Group_29135" data-name="Group 29135">
          <g id="Group_29134" data-name="Group 29134">
            <path id="Path_33676" data-name="Path 33676" d="M338.156,159.4a10.952,10.952,0,0,1,2.47-1.543l.153-2.695,4.4-.737,1.023,2.5a10.933,10.933,0,0,1,2.837.654l2.014-1.8,3.635,2.593-1.042,2.489a10.945,10.945,0,0,1,1.543,2.469l2.695.154.737,4.4-2.5,1.024a10.943,10.943,0,0,1-.654,2.837l1.8,2.012-2.592,3.637-2.489-1.042a10.9,10.9,0,0,1-2.47,1.542l-.153,2.7-4.4.737-1.023-2.5a11.03,11.03,0,0,1-2.837-.654l-2.014,1.8-3.635-2.593,1.042-2.488a10.954,10.954,0,0,1-1.543-2.47l-2.695-.153-.737-4.4,2.5-1.023A10.973,10.973,0,0,1,334.87,164l-1.8-2.014,2.593-3.637,2.488,1.043Zm3.234,5.531a4.791,4.791,0,1,0,6.683-1.119A4.792,4.792,0,0,0,341.389,164.927Z" transform="translate(-331.719 -154.421)" fill="#f9865f"/>
          </g>
        </g>
      </g>
    </g>
    <g id="Group_29152" data-name="Group 29152" transform="translate(770.383 1227.489)">
      <g id="Group_29151" data-name="Group 29151">
        <g id="Group_29150" data-name="Group 29150">
          <g id="Group_29149" data-name="Group 29149">
            <g id="Group_29148" data-name="Group 29148">
              <g id="Group_29147" data-name="Group 29147">
                <g id="Group_29146" data-name="Group 29146">
                  <g id="Group_29145" data-name="Group 29145">
                    <g id="Group_29144" data-name="Group 29144">
                      <path id="Path_33696" data-name="Path 33696" d="M115.031,168.524c-5.463-3.357-6.886-11.308-4.037-17.051s9.024-9.3,15.337-10.41a29.511,29.511,0,0,1,25.544,8.052c3.546,3.546,6.444,8.2,11.2,9.775,4.184,1.387,8.77.012,13.15.515,5.871.674,10.954,4.766,14.033,9.809s4.4,10.96,5.185,16.817c.716,5.377,1.223,11.28,5.017,15.157,3.7,3.779,9.467,4.507,14.037,7.167,8.6,5,11.549,17.672,6.045,25.961-1.756,2.642-4.295,5.079-4.456,8.248-.148,2.892,1.757,5.439,2.673,8.187,2.355,7.075-3.34,15.6-10.778,16.141-3.755.271-7.8-1.135-11.147.6-3.322,1.717-4.509,5.771-6.6,8.87a16.1,16.1,0,0,1-19.547,5.354c-2.784-1.316-5.428-3.515-8.5-3.264s-5.439,2.905-8.445,3.533c-3.939.822-7.731-2.033-10.127-5.263s-4.088-7.056-7.133-9.685c-3.985-3.443-9.527-4.227-14.532-5.868a40.747,40.747,0,0,1-23.842-56.737" transform="translate(-93.965 -140.644)" fill="#383838"/>
                    </g>
                  </g>
                </g>
              </g>
            </g>
          </g>
        </g>
      </g>
    </g>
    <g id="Group_29161" data-name="Group 29161" transform="translate(847.676 1321.978)">
      <g id="Group_29160" data-name="Group 29160">
        <g id="Group_29159" data-name="Group 29159">
          <g id="Group_29158" data-name="Group 29158">
            <g id="Group_29157" data-name="Group 29157">
              <g id="Group_29156" data-name="Group 29156">
                <g id="Group_29155" data-name="Group 29155">
                  <g id="Group_29154" data-name="Group 29154">
                    <g id="Group_29153" data-name="Group 29153">
                      <path id="Path_33697" data-name="Path 33697" d="M160.717,223.036a11.061,11.061,0,0,1,4.351-2.954l-.336-.016a6.475,6.475,0,0,1,.938-.173,4.374,4.374,0,0,1,3.439.374h-.033a8.125,8.125,0,0,1,4.5,3.8,9.617,9.617,0,0,1-.987,9.925c-1.812,2.449-4.964,4.083-7.934,3.408a8.133,8.133,0,0,1-5.59-5.735A9.124,9.124,0,0,1,160.717,223.036Z" transform="translate(-158.642 -219.711)" fill="#0fd7ad"/>
                    </g>
                  </g>
                </g>
              </g>
            </g>
          </g>
        </g>
      </g>
    </g>
    <g id="Group_29165" data-name="Group 29165" transform="translate(772.006 1256.459)">
      <g id="Group_29164" data-name="Group 29164">
        <g id="Group_29163" data-name="Group 29163">
          <g id="Group_29162" data-name="Group 29162">
            <path id="Path_33698" data-name="Path 33698" d="M102.638,294.059l-7.3-105.5a8.965,8.965,0,0,1,7.621-9.428l47.006-14.059c15.151-2.265,26.077,16.04,27.7,31.273,1.8,16.923,3.331,37.657,1.865,50.4-2.947,25.634-23.853,29.815-23.853,29.815-.01-.086.227,26.056.517,35.312l6.236,28.615Z" transform="translate(-95.324 -164.886)" fill="#f8b58e"/>
          </g>
        </g>
      </g>
    </g>
    <g id="Group_29189" data-name="Group 29189" transform="translate(799.254 1358.693)">
      <g id="Group_29188" data-name="Group 29188">
        <g id="Group_29187" data-name="Group 29187">
          <g id="Group_29186" data-name="Group 29186">
            <path id="Path_33704" data-name="Path 33704" d="M151.084,258.162s-15.551,1.741-32.959-7.728c0,0,7.651,18.837,33.03,15.358Z" transform="translate(-118.125 -250.434)" fill="#ed985f"/>
          </g>
        </g>
      </g>
    </g>
    <g id="Group_29212" data-name="Group 29212" transform="translate(792.289 1242.109)">
      <g id="Group_29211" data-name="Group 29211">
        <g id="Group_29210" data-name="Group 29210">
          <g id="Group_29209" data-name="Group 29209">
            <g id="Group_29208" data-name="Group 29208">
              <g id="Group_29207" data-name="Group 29207">
                <path id="Path_33709" data-name="Path 33709" d="M191.3,191.368a17.5,17.5,0,0,0-6.86-9.541c-1.852-1.168-3.994-1.865-5.718-3.216-3.725-2.917-4.652-8.077-6.986-12.193a19.239,19.239,0,0,0-14.8-9.507c-5.055-.443-10.233,1.147-15.171-.02-3.651-.864-6.862-3.179-10.557-3.824-7.194-1.26-13.79,3.987-18.916,9.19.056,5.136,4.2,8.511,8.185,11.75a17.817,17.817,0,0,0,14.478,3.6c3.91-.774,8.177-2.818,11.6-.779,3.6,2.144,3.828,7.522,7.032,10.222,4.581,3.86,11.719.071,17.486,1.69,4.453,1.25,7.285,5.448,10.283,8.97s7.459,6.849,11.874,5.467A52.017,52.017,0,0,0,191.3,191.368Z" transform="translate(-112.296 -152.878)" fill="#383838"/>
              </g>
            </g>
          </g>
        </g>
      </g>
    </g>
    <g id="Group_29218" data-name="Group 29218" transform="translate(732.227 1244.44)">
      <g id="Group_29217" data-name="Group 29217">
        <g id="Group_29216" data-name="Group 29216">
          <g id="Group_29215" data-name="Group 29215">
            <g id="Group_29214" data-name="Group 29214">
              <g id="Group_29213" data-name="Group 29213">
                <path id="Path_33710" data-name="Path 33710" d="M146.913,170.067c-3.23-.874-9.842-2.86-11.609-5.624-3.835-6.005-10.5-10.046-17.246-9.578a16.23,16.23,0,0,0-14.423,13.04c-8.166.18-16.059,5.427-19.865,13.2a24.473,24.473,0,0,0-1.23,3.012,17.758,17.758,0,0,0-.97,14.921c1.156,2.888,3.1,6.094,1.644,8.843-1.479,2.8-5.323,2.942-8.3,4.018a11.791,11.791,0,0,0-7.232,13.275c.445,1.926,1.4,3.842,1.023,5.784-.39,2.021-2.094,3.468-3.4,5.062a14.671,14.671,0,0,0,8.952,23.752c2.294.382,4.773.25,6.772,1.44,2.291,1.365,3.325,4.082,4.959,6.19A12.654,12.654,0,0,0,99.766,271.5a11.573,11.573,0,0,0,2.735-1.426c1.563,2.1,3.989,3.507,8.1,3.447l-1.73-53.693a4.449,4.449,0,0,0,3.294,2.5c8.647,1.824,9.648-15.957,7.654-20.745a50.145,50.145,0,0,0,8.517-9.221c2.327-3.553,4.282-13.174,3.712-17.485C135.16,175.015,148.331,170.451,146.913,170.067Z" transform="translate(-62.037 -154.828)" fill="#383838"/>
              </g>
            </g>
          </g>
        </g>
      </g>
    </g>
    <g id="Group_29236" data-name="Group 29236" transform="translate(765.529 1308.552)">
      <g id="Group_29235" data-name="Group 29235">
        <g id="Group_29234" data-name="Group 29234">
          <g id="Group_29233" data-name="Group 29233">
            <g id="Group_29232" data-name="Group 29232">
              <g id="Group_29231" data-name="Group 29231">
                <g id="Group_29230" data-name="Group 29230">
                  <g id="Group_29229" data-name="Group 29229">
                    <g id="Group_29228" data-name="Group 29228">
                      <g id="Group_29227" data-name="Group 29227">
                        <g id="Group_29226" data-name="Group 29226">
                          <g id="Group_29225" data-name="Group 29225">
                            <g id="Group_29224" data-name="Group 29224">
                              <g id="Group_29223" data-name="Group 29223">
                                <g id="Group_29222" data-name="Group 29222">
                                  <g id="Group_29221" data-name="Group 29221">
                                    <g id="Group_29220" data-name="Group 29220">
                                      <g id="Group_29219" data-name="Group 29219">
                                        <path id="Path_33711" data-name="Path 33711" d="M105.876,213.7c-.353-5.455-7.05-6.525-11.741-3.721-2.575,1.54-4.518,4.588-4.195,10.38.863,15.446,16.192,11.394,16.194,10.95C106.134,231.029,106.289,220.082,105.876,213.7Z" transform="translate(-89.904 -208.476)" fill="#f8b58e"/>
                                      </g>
                                    </g>
                                  </g>
                                </g>
                              </g>
                            </g>
                          </g>
                        </g>
                      </g>
                    </g>
                  </g>
                </g>
              </g>
            </g>
          </g>
        </g>
      </g>
    </g>
    <g id="Group_29255" data-name="Group 29255" transform="translate(769.48 1313.73)">
      <g id="Group_29254" data-name="Group 29254">
        <g id="Group_29253" data-name="Group 29253">
          <g id="Group_29252" data-name="Group 29252">
            <g id="Group_29251" data-name="Group 29251">
              <g id="Group_29250" data-name="Group 29250">
                <g id="Group_29249" data-name="Group 29249">
                  <g id="Group_29248" data-name="Group 29248">
                    <g id="Group_29247" data-name="Group 29247">
                      <g id="Group_29246" data-name="Group 29246">
                        <g id="Group_29245" data-name="Group 29245">
                          <g id="Group_29244" data-name="Group 29244">
                            <g id="Group_29243" data-name="Group 29243">
                              <g id="Group_29242" data-name="Group 29242">
                                <g id="Group_29241" data-name="Group 29241">
                                  <g id="Group_29240" data-name="Group 29240">
                                    <g id="Group_29239" data-name="Group 29239">
                                      <g id="Group_29238" data-name="Group 29238">
                                        <g id="Group_29237" data-name="Group 29237">
                                          <path id="Path_33712" data-name="Path 33712" d="M100.443,224.871c-.071-.045-.259.2-.7.437a2.7,2.7,0,0,1-2.009.154c-1.666-.508-3.185-3.022-3.414-5.8a8.887,8.887,0,0,1,.538-3.893,3.111,3.111,0,0,1,1.908-2.179,1.37,1.37,0,0,1,1.629.649c.232.419.151.734.234.755.045.037.317-.277.157-.908a1.719,1.719,0,0,0-.662-.933,2.035,2.035,0,0,0-1.509-.311,3.788,3.788,0,0,0-2.677,2.551,9.149,9.149,0,0,0-.693,4.358c.272,3.106,2.029,5.93,4.3,6.45a2.882,2.882,0,0,0,2.438-.545C100.436,225.246,100.5,224.9,100.443,224.871Z" transform="translate(-93.211 -212.809)" fill="#ed985f"/>
                                        </g>
                                      </g>
                                    </g>
                                  </g>
                                </g>
                              </g>
                            </g>
                          </g>
                        </g>
                      </g>
                    </g>
                  </g>
                </g>
              </g>
            </g>
          </g>
        </g>
      </g>
    </g>
    <g id="Group_29264" data-name="Group 29264" transform="translate(759.865 1255.811)">
      <g id="Group_29263" data-name="Group 29263">
        <g id="Group_29262" data-name="Group 29262">
          <g id="Group_29261" data-name="Group 29261">
            <g id="Group_29260" data-name="Group 29260">
              <g id="Group_29259" data-name="Group 29259">
                <g id="Group_29258" data-name="Group 29258">
                  <g id="Group_29257" data-name="Group 29257">
                    <g id="Group_29256" data-name="Group 29256">
                      <path id="Path_33713" data-name="Path 33713" d="M121.061,164.35c.116.161-1.551.465-3.045,2.627-1.5,2.127-2.016,6.171-.981,10.7l.088.388-.379.1a14.947,14.947,0,0,0-9.828,8.919,11.607,11.607,0,0,0-.746,3.781,22.7,22.7,0,0,0,.544,4.076,30.694,30.694,0,0,1,.652,4.389,7.261,7.261,0,0,1-1.158,4.578c-1.879,2.953-4.947,4.438-7.583,5.874a25.988,25.988,0,0,0-7.107,4.8,19.322,19.322,0,0,0-5.583,13.034,20.171,20.171,0,0,0,2.176,9.522c1.058,2.094,1.935,3.088,1.849,3.154-.03.024-.258-.212-.672-.686a16.363,16.363,0,0,1-1.55-2.267,19.619,19.619,0,0,1-2.574-9.731A19.882,19.882,0,0,1,90.8,213.89a26.6,26.6,0,0,1,7.326-5.047c2.634-1.435,5.525-2.9,7.16-5.509,1.678-2.371.868-5.423.376-8.185a23.512,23.512,0,0,1-.539-4.283,12.568,12.568,0,0,1,.844-4.137,15.664,15.664,0,0,1,10.576-9.34l-.29.489c-.985-4.751-.321-8.94,1.4-11.158a6.505,6.505,0,0,1,2.389-2.006A3.685,3.685,0,0,1,121.061,164.35Z" transform="translate(-85.164 -164.343)" fill="#111"/>
                    </g>
                  </g>
                </g>
              </g>
            </g>
          </g>
        </g>
      </g>
    </g>
    <g id="Group_29271" data-name="Group 29271" transform="translate(768.951 1328.335)">
      <g id="Group_29270" data-name="Group 29270">
        <g id="Group_29269" data-name="Group 29269">
          <g id="Group_29268" data-name="Group 29268">
            <g id="Group_29267" data-name="Group 29267">
              <g id="Group_29266" data-name="Group 29266">
                <g id="Group_29265" data-name="Group 29265">
                  <path id="Path_33714" data-name="Path 33714" d="M94.842,228.357a11.053,11.053,0,0,1,4.351-2.954l-.337-.016a6.458,6.458,0,0,1,.939-.173,4.361,4.361,0,0,1,3.438.374H103.2a8.122,8.122,0,0,1,4.5,3.8,9.619,9.619,0,0,1-.988,9.926c-1.812,2.449-4.963,4.082-7.934,3.407a8.135,8.135,0,0,1-5.59-5.735A9.125,9.125,0,0,1,94.842,228.357Z" transform="translate(-92.767 -225.031)" fill="#0fd7ad"/>
                </g>
              </g>
            </g>
          </g>
        </g>
      </g>
    </g>
    <g id="Group_29273" data-name="Group 29273" transform="translate(995.014 1406.364)">
      <path id="Path_33715" data-name="Path 33715" d="M281.933,332.143l10.531-4.037s2.871-9.184,4.781-11.88,12.077-10.951,12.673-11.176,7.275-15.2,10.318-14.715,5.142,2.623,4.291,6.689-7.593,12.172-5.727,13.52a13.662,13.662,0,0,0,4.91,1.836s.827-4.669,3.389-6.18,5.483,1,5.483,1l.078,2.014,2.532-2.316s2.661-9.378,6.695-9.332a16.4,16.4,0,0,1,3.982-5.35,3.47,3.47,0,0,1,5.348,1.562h0l-7.242,21.249-19.918,21.942s-9.338,3.586-11.715,4.687-13.177,8.576-17.954,10.171-10.328,4.03-10.328,4.03Z" transform="translate(-281.933 -290.324)" fill="#f8b58e"/>
    </g>
    <g id="Group_29278" data-name="Group 29278" transform="translate(1003.74 1441.253)">
      <g id="Group_29277" data-name="Group 29277">
        <path id="Path_33716" data-name="Path 33716" d="M308.444,319.907c0-.13-1.429-.333-3.78-.387a17.484,17.484,0,0,0-9.017,1.98,10.968,10.968,0,0,0-3.736,3.6,17.127,17.127,0,0,0-1.782,3.781c-.745,2.24-.986,3.665-.866,3.7.148.049.641-1.321,1.539-3.443.906-2.073,2.359-5.059,5.36-6.758a19.384,19.384,0,0,1,8.518-2.142C306.991,320.112,308.443,320.059,308.444,319.907Z" transform="translate(-289.235 -319.519)" fill="#ed985f"/>
      </g>
    </g>
    <g id="Group_29283" data-name="Group 29283" transform="translate(1026.393 1425.104)">
      <g id="Group_29282" data-name="Group 29282">
        <path id="Path_33717" data-name="Path 33717" d="M313.945,308.023c.157-.225-.93-1.209-2.623-1.713s-3.139-.286-3.132-.012c0,.29,1.307.523,2.839.991S313.789,308.268,313.945,308.023Z" transform="translate(-308.19 -306.005)" fill="#ed985f"/>
      </g>
    </g>
    <path id="Path_33718" data-name="Path 33718" d="M333.215,313.919c-.133-.024.05-1.745.465-4.609s1.064-6.874,1.859-11.476l.3.6a23.933,23.933,0,0,0-2.18-1.028,2.79,2.79,0,0,0-2.124.271,6.139,6.139,0,0,0-2.462,2.976,22.167,22.167,0,0,0-1.3,3.675c-.576,2.457-.96,4.738-1.313,6.635-.686,3.807-1.128,6.164-1.288,6.143s0-2.416.48-6.266c.253-1.926.55-4.21,1.084-6.753a21.659,21.659,0,0,1,1.315-3.907A7.119,7.119,0,0,1,331,296.65a3.928,3.928,0,0,1,2.973-.347,20.978,20.978,0,0,1,2.366,1.128l.38.177-.08.423c-.857,4.591-1.648,8.574-2.256,11.4S333.349,313.943,333.215,313.919Z" transform="translate(721.5 1117.176)" fill="#ed985f"/>
    <path id="Path_33719" data-name="Path 33719" d="M310,330.722c-.049-.01-.018-.323.09-.913a12.6,12.6,0,0,1,.858-2.438,31.143,31.143,0,0,1,5.226-7.618l-.114.191c1.379-4.08.125-9.985,3.821-15.26a4.845,4.845,0,0,1,3.837-1.705,7.1,7.1,0,0,1,3.719,1.3l.266.182-.042.33c-.741,5.968-1.426,11.125-1.957,14.782a9.6,9.6,0,0,1-1.338,4.16c-.519.884-.892,1.3-.944,1.267a7.717,7.717,0,0,1,.606-1.438,10.43,10.43,0,0,0,.981-4.109c.338-3.68.875-8.836,1.546-14.784l.225.51a6.1,6.1,0,0,0-3.094-1.058,3.7,3.7,0,0,0-2.943,1.332,8.752,8.752,0,0,0-1.721,3.572,33.972,33.972,0,0,0-.831,3.9c-.222,1.3-.282,2.494-.433,3.778a22.662,22.662,0,0,1-.778,3.521l-.033.108-.081.085a35.729,35.729,0,0,0-5.423,7.2C310.376,329.516,310.135,330.753,310,330.722Z" transform="translate(718.551 1118.507)" fill="#ed985f"/>
    <g id="Group_29295" data-name="Group 29295" transform="translate(772.535 1373.971)">
      <path id="Path_33720" data-name="Path 33720" d="M95.765,272.3c.635-.915,4.86-9.078,4.86-9.078l23.969,20.661s23.5,19.679,23.5,18.406l3.749-18.931,4.618-17.222,8.621,13.025s27.085,53.1,27.085,53.738,16.763,55.594,16.763,55.594l-3.608,22.28-.424,78.935-50.5-2.122-9.973-15.914L127.231,370.453Z" transform="translate(-95.765 -263.218)" fill="#fad8b0"/>
    </g>
    <g id="Group_29296" data-name="Group 29296" transform="translate(815.115 1584.84)">
      <path id="Path_33721" data-name="Path 33721" d="M151.811,439.671h53.8l8.524,36.16H131.4Z" transform="translate(-131.397 -439.671)" fill="#073570"/>
    </g>
    <g id="Group_29297" data-name="Group 29297" transform="translate(737.752 1381.021)">
      <path id="Path_33722" data-name="Path 33722" d="M162.745,457.675c-1.693-25.925-.985-74.831-10.907-100.348s-49.761-88.209-49.761-88.209l-9.778,15.2-25.64,9.621,34.782,140.994s-13.4,31.544-19.774,49.973c-1.906,5.507-4.479,14.858-7.3,24.187h88.02C163.167,488.591,163.546,469.922,162.745,457.675Z" transform="translate(-66.66 -269.118)" fill="#ff6d66"/>
    </g>
    <g id="Group_29298" data-name="Group 29298" transform="translate(866.527 1393.381)">
      <path id="Path_33723" data-name="Path 33723" d="M310.274,326.5l-67.852,37.718-47.021-67.1q-.19-.26-.4-.544c-5.35-7.082-10.608-14.878-19.268-16.825l-1.311-.3,2.517,80.317s33.434,36.855,52.179,52.1c5.582,4.538,19.729,1.7,26.469-2.016,27.006-14.9,73.128-53.115,73.128-53.115Z" transform="translate(-174.418 -279.46)" fill="#ff6d66"/>
    </g>
    <g id="Group_29299" data-name="Group 29299" transform="translate(834.699 1378.379)">
      <path id="Path_33724" data-name="Path 33724" d="M201.943,435.975s4.943-38.339,6.564-47.967c8.485-50.39-28.9-106.1-28.9-106.1l-17.088-2.826-14.741-12.175L154.3,285.1s21.412,59.9,25.664,79.04,6.38,77.967,7.042,76.55c.391-.835,2.967,35.518,6.2,68.841h36.272Z" transform="translate(-147.784 -266.907)" fill="#ff6d66"/>
    </g>
    <g id="Group_29300" data-name="Group 29300" transform="translate(849.438 1390.554)">
      <path id="Path_33725" data-name="Path 33725" d="M196.373,391.3a7.052,7.052,0,0,1,.011-1.249q.073-1.337.194-3.559.073-1.169.16-2.568,0-1.418.006-3.061c0-2.2.053-4.7-.161-7.453a155.289,155.289,0,0,0-8.394-42.2,145.734,145.734,0,0,0-6.808-16.752l-.008-.019-.006-.013a143.672,143.672,0,0,0-7.859-15.313c-2.593-4.51-4.987-8.437-6.99-11.686-1.989-3.181-3.586-5.74-4.736-7.579-.52-.834-.937-1.506-1.261-2.027a3.948,3.948,0,0,1-.4-.723,3.694,3.694,0,0,1,.515.648c.351.5.805,1.151,1.37,1.956,1.178,1.72,2.866,4.247,4.932,7.462s4.512,7.115,7.156,11.61a138.318,138.318,0,0,1,8.006,15.353l-.014-.031a141.541,141.541,0,0,1,6.889,16.849,149.218,149.218,0,0,1,8.194,42.443c.178,2.771.088,5.283.039,7.487-.026,1.1-.051,2.121-.074,3.07q-.127,1.4-.233,2.572c-.145,1.482-.262,2.664-.349,3.554A7.1,7.1,0,0,1,196.373,391.3Z" transform="translate(-160.118 -277.095)" fill="#263238"/>
    </g>
    <g id="Group_29301" data-name="Group 29301" transform="translate(791.998 1405.593)">
      <path id="Path_33726" data-name="Path 33726" d="M144.473,297.411a3.694,3.694,0,0,1-.954-.417l-2.588-1.366-9.124-5.05.535-.269c-.446,4.1-1.2,8.891-1.954,14-.3,2.078-.59,4.1-.826,6.043l-.091.749-.572-.488c-4.882-4.153-9.124-7.807-12.132-10.442l-3.509-3.123a7.674,7.674,0,0,1-1.2-1.2,7.862,7.862,0,0,1,1.387.988l3.663,2.94c3.1,2.526,7.409,6.1,12.317,10.225l-.662.262c.223-1.954.5-3.988.81-6.071.755-5.115,1.546-9.891,2.059-13.961l.068-.546.467.276,8.976,5.307,2.489,1.539A3.751,3.751,0,0,1,144.473,297.411Z" transform="translate(-112.053 -289.679)" fill="#263238"/>
    </g>
    <g id="Group_29302" data-name="Group 29302" transform="translate(824.85 1389.91)">
      <path id="Path_33727" data-name="Path 33727" d="M153.053,276.556a10.975,10.975,0,0,1,.074,2.161c-.029,1.551-.063,3.523-.106,5.88-.125,4.964-.356,11.818-.661,19.386-.007.186-.016.372-.023.552l-.054,1.323-.707-1.116c-3.438-5.417-6.58-10.369-9.072-14.3l.568-.069c-1,2.753-1.837,5.053-2.484,6.831a15.083,15.083,0,0,1-1.036,2.48,14.867,14.867,0,0,1,.7-2.6c.577-1.8,1.325-4.131,2.219-6.92l.2-.631.366.562c2.537,3.9,5.735,8.817,9.233,14.2l-.761.207c.007-.18.014-.366.023-.552.3-7.568.627-14.418.9-19.375.147-2.353.271-4.323.368-5.87A10.729,10.729,0,0,1,153.053,276.556Z" transform="translate(-139.543 -276.556)" fill="#263238"/>
    </g>
    <g id="Group_29303" data-name="Group 29303" transform="translate(708.605 1405.846)">
      <path id="Path_33728" data-name="Path 33728" d="M71.417,289.891a38.328,38.328,0,0,0-5.953,4.579A40.553,40.553,0,0,0,55.1,310.8c-2.42,6.913-4.82,15.422-6.212,20.778L42.4,430a57.9,57.9,0,0,0,4.137,25.612l20.1,49.437h43.328L86.569,438.9l8.009-72.967Z" transform="translate(-42.27 -289.891)" fill="#ff6d66"/>
    </g>
    <g id="Group_29307" data-name="Group 29307" transform="translate(764.441 1394.586)">
      <g id="Group_29304" data-name="Group 29304" transform="translate(0.003 0)">
        <path id="Path_33729" data-name="Path 33729" d="M89,280.469l9.53,28.585H108.68l-6.589,4.194L154.2,412.836" transform="translate(-88.996 -280.469)" fill="#ff725e"/>
      </g>
      <g id="Group_29306" data-name="Group 29306">
        <g id="Group_29305" data-name="Group 29305">
          <path id="Path_33730" data-name="Path 33730" d="M154.2,412.836a1.6,1.6,0,0,1-.229-.348c-.159-.281-.357-.629-.6-1.058l-2.236-4.107-8.09-15.176c-6.788-12.905-16.113-30.633-26.413-50.217l-14.876-28.5-.163-.312.3-.188,6.6-4.177.194.666-10.154-.037H98.29l-.072-.221L91.4,288.249,89.574,282.5c-.186-.62-.336-1.116-.454-1.507a2.261,2.261,0,0,1-.123-.526,2.279,2.279,0,0,1,.215.495l.543,1.478,1.99,5.692,7.09,20.818-.308-.221,10.154-.037,1.24,0-1.047.67-6.578,4.211.133-.5,14.938,28.472,26.2,50.329c3.294,6.414,5.969,11.625,7.856,15.3l2.1,4.179.527,1.1A1.522,1.522,0,0,1,154.2,412.836Z" transform="translate(-88.993 -280.469)" fill="#263238"/>
        </g>
      </g>
    </g>
    <g id="Group_29311" data-name="Group 29311" transform="translate(745.217 1419.779)">
      <g id="Group_29308" data-name="Group 29308" transform="translate(0.006 0.002)">
        <path id="Path_33731" data-name="Path 33731" d="M72.911,301.551a63.554,63.554,0,0,1,14.06,54.081" transform="translate(-72.911 -301.551)" fill="#ff725e"/>
      </g>
      <g id="Group_29310" data-name="Group 29310">
        <g id="Group_29309" data-name="Group 29309">
          <path id="Path_33732" data-name="Path 33732" d="M86.972,355.632c-.167-.031.546-3.205.845-8.41a66.151,66.151,0,0,0-.134-9.136A72.073,72.073,0,0,0,85.8,327.069a72.05,72.05,0,0,0-3.724-10.54,66.11,66.11,0,0,0-4.333-8.045c-2.8-4.4-4.964-6.824-4.833-6.932a11.947,11.947,0,0,1,1.568,1.655,25.014,25.014,0,0,1,1.69,2.076c.62.838,1.373,1.763,2.069,2.88a59.7,59.7,0,0,1,4.538,8.046,67.746,67.746,0,0,1,3.833,10.651,67.716,67.716,0,0,1,1.84,11.165,59.982,59.982,0,0,1-.044,9.237c-.063,1.315-.27,2.49-.405,3.524a24.811,24.811,0,0,1-.465,2.636A11.908,11.908,0,0,1,86.972,355.632Z" transform="translate(-72.906 -301.55)" fill="#263238"/>
        </g>
      </g>
    </g>
    <g id="Group_29314" data-name="Group 29314" transform="translate(752.588 1481.891)">
      <g id="Group_29313" data-name="Group 29313">
        <path id="Path_33733" data-name="Path 33733" d="M102.778,492.633a1.516,1.516,0,0,1-.151-.329l-.381-.988c-.337-.912-.81-2.191-1.411-3.819-1.215-3.368-2.951-8.174-5.092-14.105-4.26-11.978-10.132-28.485-16.646-46.8l-.023-.066.007-.072c.056-.509.116-1.06.177-1.612,2.2-19.685,4.185-37.5,5.63-50.448.746-6.42,1.352-11.629,1.777-15.28.219-1.77.391-3.16.514-4.15l.149-1.078a1.644,1.644,0,0,1,.072-.365,1.593,1.593,0,0,1-.008.372c-.023.278-.051.636-.088,1.084-.094.994-.228,2.389-.4,4.164-.378,3.657-.917,8.873-1.58,15.3C83.927,387.4,82,405.22,79.877,424.912c-.061.552-.122,1.1-.177,1.612l-.017-.137,16.47,46.859c2.063,5.958,3.735,10.788,4.907,14.172.554,1.644.991,2.935,1.3,3.858l.324,1.007A1.666,1.666,0,0,1,102.778,492.633Z" transform="translate(-79.074 -353.524)" fill="#263238"/>
      </g>
    </g>
    <g id="Group_29316" data-name="Group 29316" transform="translate(877.92 1418.936)">
      <g id="Group_29315" data-name="Group 29315">
        <path id="Path_33734" data-name="Path 33734" d="M183.951,300.844a96.22,96.22,0,0,1,7.034,13.38c1.009,2.112,1.845,4.538,2.869,7.089.862,2.611,1.894,5.368,2.674,8.363.9,2.963,1.587,6.135,2.333,9.418q.455,2.483.925,5.049c.318,1.709.5,3.464.758,5.23a168.9,168.9,0,0,1,.484,36.467c-.261,2.314-.495,4.413-.7,6.267s-.492,3.419-.675,4.711q-.3,1.871-.476,2.97a6.827,6.827,0,0,1-.208,1.029,6.623,6.623,0,0,1,.084-1.048q.133-1.1.36-2.984c.146-1.3.406-2.872.569-4.718.18-1.853.385-3.951.611-6.264a177.626,177.626,0,0,0-.663-36.348c-.258-1.758-.436-3.507-.75-5.208s-.613-3.381-.912-5.029c-.734-3.268-1.409-6.432-2.287-9.385-.761-2.985-1.771-5.736-2.608-8.344-1-2.548-1.808-4.974-2.788-7.089q-.694-1.6-1.321-3.051c-.425-.96-.888-1.836-1.286-2.671-.81-1.665-1.5-3.107-2.145-4.239l-1.42-2.647A6.442,6.442,0,0,1,183.951,300.844Z" transform="translate(-183.95 -300.844)" fill="#263238"/>
      </g>
    </g>
    <g id="Group_29318" data-name="Group 29318" transform="translate(932.57 1477.795)">
      <g id="Group_29317" data-name="Group 29317">
        <path id="Path_33735" data-name="Path 33735" d="M232.305,371.387a11.189,11.189,0,0,1-1.246-2.945,29.468,29.468,0,0,1-.678-15.3,11.175,11.175,0,0,1,.982-3.043,29.477,29.477,0,0,1-.551,3.127,35.359,35.359,0,0,0,.668,15.095A29.3,29.3,0,0,1,232.305,371.387Z" transform="translate(-229.681 -350.097)" fill="#263238"/>
      </g>
    </g>
  </g>
</svg>
