<svg xmlns="http://www.w3.org/2000/svg" width="865.76" height="682.89" viewBox="0 0 865.76 682.89"><ellipse cx="394.65" cy="612.06" rx="253.31" ry="44.84" transform="translate(-12.88 8.5) rotate(-1.21)" fill="#407afe"/><ellipse cx="394.65" cy="612.06" rx="253.31" ry="44.84" transform="translate(-12.88 8.5) rotate(-1.21)" fill="#fff" opacity="0.7"/><path d="M767.61,426.31S861.53,337.67,809.93,220c-14.34-32.71-37.52-60.75-66.36-81.8C679,91,515.56-2.27,269.72,33.77a183.28,183.28,0,0,0-74,27.8c-36.09,23.67-74.33,67.15-58.07,141.65,5.75,26.33,4.46,53.8-5,79-9.39,25-27.18,55.63-60.3,88.75,0,0-70.57,68.17-1.92,127.17a125.41,125.41,0,0,0,50.71,26.08C206.67,546.18,552.79,618.93,767.61,426.31Z" fill="#407afe"/><path d="M767.61,426.31S861.53,337.67,809.93,220c-14.34-32.71-37.52-60.75-66.36-81.8C679,91,515.56-2.27,269.72,33.77a183.28,183.28,0,0,0-74,27.8c-36.09,23.67-74.33,67.15-58.07,141.65,5.75,26.33,4.46,53.8-5,79-9.39,25-27.18,55.63-60.3,88.75,0,0-70.57,68.17-1.92,127.17a125.41,125.41,0,0,0,50.71,26.08C206.67,546.18,552.79,618.93,767.61,426.31Z" fill="#fff" opacity="0.7"/><polygon points="313.77 575.02 370 607.87 370 622.9 365.55 622.9 365.55 612.88 316 590.05 307.65 581.15 313.77 575.02" fill="#29150d"/><rect x="284.82" y="527.15" width="10.58" height="24.49" fill="#ba6b15"/><rect x="283.15" y="546.08" width="13.92" height="13.36" fill="#29150d"/><polygon points="279.26 567.79 279.26 557.21 299.86 557.21 299.86 567.23 333.81 608.43 333.81 625.68 328.25 625.68 328.25 610.1 289.83 577.81 230.82 610.65 230.82 626.8 224.7 626.8 224.7 606.76 279.26 567.79" fill="#29150d"/><polygon points="265.9 589.5 251.98 608.98 251.98 622.9 258.1 622.9 258.1 611.21 275.92 594.51 272.58 581.71 265.9 589.5" fill="#29150d"/><path d="M241.4,508.78v4.3a5.16,5.16,0,0,0,5.17,5.16H251a2.53,2.53,0,0,1,1.66.62c5.39,4.67,41.35,33.31,77.06-1a2.56,2.56,0,0,1,1.77-.72h4.4a4.9,4.9,0,0,0,4.9-4.9v-3.45Z" fill="#29150d"/><line x1="258.1" y1="518.8" x2="328.67" y2="518.8" fill="none" stroke="#fff" stroke-miterlimit="10"/><path d="M234.17,422.49s-15.31,34.24,5.28,64.86l15.87-2.51s-25-29.44-1.39-63.18Z" fill="#ba6b15"/><polygon points="432.9 450.88 396.16 634.59 405.07 634.59 459.63 449.21 432.9 450.88" fill="#29150d"/><polygon points="533.67 450.88 587.66 631.25 596.01 631.25 560.94 452 533.67 450.88" fill="#29150d"/><polygon points="469.09 450.88 496.37 626.8 504.16 626.8 493.03 450.88 469.09 450.88" fill="#29150d"/><path d="M482.45,614.55s-5,11.69-2.23,17.81h69.53a3.18,3.18,0,0,0,2.46-5.2c-3.46-4.2-11.51-10.08-30.24-14.28Z" fill="#ea3232"/><path d="M444.59,568.9l34,35.63s3.34,3.34,3.9,10l22.27,8.35s11.13,5,15-3.9l2.22-6.12s-16.7-6.68-25.05-23.38L474.35,554Z" fill="#f8cfc9"/><path d="M379.46,343.44a13.39,13.39,0,0,1,7.8-9.46l.55,4.45S382.52,337.6,379.46,343.44Z" fill="#efafa5"/><path d="M444.76,406.35h5.8A14.63,14.63,0,0,1,465.19,421v1.51a0,0,0,0,1,0,0H430.12a0,0,0,0,1,0,0V421A14.63,14.63,0,0,1,444.76,406.35Z" fill="#407afe"/><path d="M404,404.68a36.39,36.39,0,0,0,20-3.34s13.91-7.8,20.59-3.9l5.22,1.61a1.33,1.33,0,0,1,.28,2.43c-1.51.83-4.26,1.33-9.13-.23a3,3,0,0,0-2.63.41l-4.31,3a15.32,15.32,0,0,1,10.57,2.22l10.6,6.45A2,2,0,0,1,453.6,417l-.1,0s-2.78,5-9.46,1.67a3,3,0,0,1-4.46,1.67s-2.78,4.46-6.12,0h-7.24S424,423.05,414,422.49l-15.23.09S402.29,416.37,404,404.68Z" fill="#f8cfc9"/><path d="M449.05,414.7s-8.91-7.8-13.36-6.68" fill="none" stroke="#efafa5" stroke-miterlimit="10"/><path d="M427.89,413.58s9.47-.55,13.36,2.79" fill="none" stroke="#efafa5" stroke-miterlimit="10"/><path d="M374.73,402.73s6.4,4.73,4.18-22l-7.54,16.69A15.48,15.48,0,0,0,374.73,402.73Z" fill="#ea3232"/><path d="M374.73,402.73s6.4,4.73,4.18-22l-7.54,16.69A15.48,15.48,0,0,0,374.73,402.73Z" opacity="0.3"/><polygon points="421.21 453.67 341.05 453.67 341.05 423.05 413.98 422.49 413.98 444.2 421.21 444.2 421.21 453.67" fill="#29150d"/><path d="M324.35,328.41s12.8,6.12,12.8,30.06c0,0,0,8.35,6.13,10,0,0,6.68,3.34,9.46,8.35l12.8-13.92s-1.56,28.36,9.52,39.79l-31.5-.54A29.63,29.63,0,0,1,332.42,376S338.27,361.81,324.35,328.41Z" fill="#ea3232"/><path d="M324.35,328.41s12.8,6.12,12.8,30.06c0,0,0,8.35,6.13,10,0,0,6.68,3.34,9.46,8.35l12.8-13.92s-1.56,28.36,9.52,39.79l-31.5-.54A29.63,29.63,0,0,1,332.42,376S338.27,361.81,324.35,328.41Z" opacity="0.2"/><path d="M227.16,361.25h44.3a0,0,0,0,1,0,0v61.24a0,0,0,0,1,0,0h-44.3a22.5,22.5,0,0,1-22.5-22.5V383.75A22.5,22.5,0,0,1,227.16,361.25Z" fill="#f7d152"/><path d="M226.37,365.15s-2.78,1.12-2.78,7.24v41.75s.56,5,3.9,5" fill="none" stroke="#000" stroke-miterlimit="10" opacity="0.2"/><path d="M239.26,361.18s14.86,52.77,15.18,61.5h17V361.25Z" opacity="0.2"/><path d="M323.24,306.7l2.22-7.79-10.15-14.8-9.07-4.41-2.49,16.42A105.74,105.74,0,0,0,323.24,306.7Z" fill="#efafa5"/><path d="M296,303.36s-2.78-10,7.79-7.24h0s11.14,7.8,19.49,10.58h0s13.36.56,4.45,8.91h0s-2.23,1.11-.56,2.78c0,0,4.46,6.12-3.89,6.68h0s-2.23,1.67,1.11,3.34h0s12.77,28.86,10.84,46.45a31.88,31.88,0,0,0,1.28,13.45c1.48,4.5,3.95,9.56,7.92,12.47h0l59.84,3.62h0s-4.17,27-16.42,33.68h0s-11.69,1.67-18.37,2.78c0,0-10.58,2.23-20-2.78h0a62.43,62.43,0,0,0-15.59,0,15.61,15.61,0,0,1-6.68-.56h0s-15,2.23-26.72,2.78h0a70.82,70.82,0,0,1-15.59,2.23h0s-10,6.68-20,7.24h0a15.72,15.72,0,0,1-4.73,4.73A16.15,16.15,0,0,1,252,457h0s-8.35-9.47-2.23-17.82c0,0,3.34-3.34,2.23-10h0s-3.9-6.12,2.23-13.36h0S266.45,393,268.12,373c0,0,2.79-49.55,21.16-51.78h0s-6.12-8.35,1.11-11.69c0,0,4.45-.55,5.57-6.12Z" fill="#ea3232"/><path d="M289.28,321.17c6.83-5.62,16.89-4.18,24.19-.23,1,.63,2.08,1.24,3.09,1.9-1.12-.46-2.2-1-3.3-1.46-7.5-3.15-16.66-4.59-24-.21Z" opacity="0.2"/><path d="M304.87,328.41c7.82,3.32,12.9,11.35,15.83,19A54,54,0,0,1,324,361.51c.53,5.51,1.12,12.87,5.89,16.45a11.6,11.6,0,0,1-4.24-5.75c-1.81-4.54-1.84-9.46-2.64-14.2-2-11.17-7.47-24.31-18.17-29.6Z" opacity="0.2"/><path d="M298.54,440.82s3-13.32-2.58-26.68c0,0-7.8-15-6.13-28.39,0,0,21.16,43.42,37.3,51.77Z" opacity="0.2"/><path d="M276.47,353.46c3,10.86,6.31,21.84,12.81,31.18-7.52-7.92-11.53-20.49-12.81-31.18Z" opacity="0.2"/><path d="M254.21,439.19c4.82-1,9.11-3.65,13-6.55,1.55-1.16,3-2.59,4.57-3.77,7.3-5.27,16.38-7.66,25.27-8.05-7.75,1.2-15.43,3.3-22.19,7.33-2.58,1.44-4.69,3.57-7.07,5.27-4,2.82-8.63,5.3-13.6,5.77Z" opacity="0.2"/><g opacity="0.2"><path d="M394.06,404.21c-1.2,11.76-7,22.89-14.79,31.66-1,1.13-2.48,2.55-3.53,3.63,1.1-1.29,2.27-2.49,3.33-3.81,7.45-9,13.08-19.86,15-31.48Z"/></g><path d="M411.19,329.52s8.91,1.12,1.67,7.24c0,0,5.57,2.78,0,6.68,0,0,4.46,2.78,0,6.12Z" fill="#efafa5"/><path d="M385.59,329.52l8.84,32.26a2.47,2.47,0,0,0,2.91,1.77l14-3a2.5,2.5,0,0,0,2-2.59l-2.1-33.49Z" fill="#ea3232"/><path d="M382.8,330.08l30.06-5.57-.55-2.78-1.12.56-.23-1.67a2.26,2.26,0,0,0-2.56-1.91l-17.25,2.46-.28-1.43a1.32,1.32,0,0,0-1.61-1l-2,.49a1.32,1.32,0,0,0-1,1.47l.39,2.72S381.13,323.4,382.8,330.08Z" fill="#2b1710"/><path d="M473,560.11,440.33,579.6a4.36,4.36,0,0,1-5.84-1.29l-42.78-62.85-70.26-77.18,5.68-.76,75.12,21A29.6,29.6,0,0,1,419,470.64L474.35,554A4.36,4.36,0,0,1,473,560.11Z" fill="#407afe"/><path d="M473,560.11,440.33,579.6a4.36,4.36,0,0,1-5.84-1.29l-42.78-62.85-70.26-77.18,5.68-.76,75.12,21A29.6,29.6,0,0,1,419,470.64L474.35,554A4.36,4.36,0,0,1,473,560.11Z" opacity="0.2"/><path d="M335.76,568.07l-24.21,17c-10.58,5-6.68,25.06-6.68,25.06-16.15,2.78-17.26-8.91-17.26-8.91l-6.68-25.61c17.81-10.58,37.3-32.84,37.3-32.84A155.39,155.39,0,0,0,335.76,568.07Z" fill="#f8cfc9"/><path d="M309.88,634c-17.26-.55-20.6-12.24-20.6-12.24l-21.71-34.52c-3.34-9.46,13.36-11.69,13.36-11.69l6.68,25.61s1.11,11.69,17.26,8.91c3.34,11.69,13.36,17.81,13.36,17.81C324.35,635.15,309.88,634,309.88,634Z" fill="#ea3232"/><rect x="413.98" y="422.49" width="182.04" height="21.71" fill="#ba6b15"/><rect x="421.21" y="444.2" width="156.43" height="9.46" fill="#ba6b15"/><rect x="421.21" y="444.2" width="156.43" height="2.78" opacity="0.2"/><path d="M240.66,510.45h101.5s9.35-.78,8.91-12.25a61.64,61.64,0,0,1-17.81-5.57s-17.82-10-67.36-8.35c0,0-35.07-5.56-35.07,11.69a32.91,32.91,0,0,0,.21,6.46A9.75,9.75,0,0,0,240.66,510.45Z" fill="#f7d152"/><circle cx="223.59" cy="625.13" r="7.79" fill="#ba6b15"/><circle cx="258.66" cy="625.13" r="7.79" fill="#ba6b15"/><circle cx="335.48" cy="625.13" r="7.79" fill="#ba6b15"/><circle cx="372.22" cy="625.13" r="7.79" fill="#ba6b15"/><rect x="495.25" y="401.89" width="7.79" height="18.93" fill="#f7d152"/><rect x="495.25" y="401.89" width="7.79" height="18.93" opacity="0.2"/><polygon points="702.34 408.02 575.97 382.97 574.49 273.93 574.3 260.49 701.79 228.76 701.85 248.36 702.34 408.02" fill="#fff"/><polygon points="701.85 248.36 574.49 273.93 574.3 260.49 701.79 228.76 701.85 248.36" fill="#407afe"/><ellipse cx="581.82" cy="265.23" rx="2.51" ry="3.06" fill="#fff"/><ellipse cx="590.17" cy="263.56" rx="2.51" ry="3.06" fill="#fff"/><ellipse cx="599.08" cy="261.89" rx="2.51" ry="3.06" fill="#fff"/><line x1="617.17" y1="274.41" x2="656.14" y2="267.73" fill="none" stroke="#ccc" stroke-miterlimit="10"/><line x1="599.36" y1="293.34" x2="643.06" y2="286.66" fill="none" stroke="#ccc" stroke-miterlimit="10"/><line x1="662.26" y1="266.62" x2="691.77" y2="261.61" fill="none" stroke="#ccc" stroke-miterlimit="10"/><line x1="626.63" y1="304.47" x2="646.67" y2="302.25" fill="none" stroke="#ccc" stroke-miterlimit="10"/><line x1="656.14" y1="302.25" x2="692.88" y2="297.79" fill="none" stroke="#ccc" stroke-miterlimit="10"/><line x1="636.65" y1="319.5" x2="693.44" y2="317.83" fill="none" stroke="#ccc" stroke-miterlimit="10"/><line x1="598.8" y1="335.65" x2="622.74" y2="336.2" fill="none" stroke="#ccc" stroke-miterlimit="10"/><line x1="628.3" y1="335.65" x2="656.14" y2="336.2" fill="none" stroke="#ccc" stroke-miterlimit="10"/><line x1="662.26" y1="336.2" x2="693.44" y2="336.76" fill="none" stroke="#ccc" stroke-miterlimit="10"/><line x1="599.91" y1="349.56" x2="647.23" y2="352.9" fill="none" stroke="#ccc" stroke-miterlimit="10"/><line x1="613.27" y1="364.59" x2="651.68" y2="369.05" fill="none" stroke="#ccc" stroke-miterlimit="10"/><line x1="661.7" y1="370.72" x2="693.44" y2="374.62" fill="none" stroke="#ccc" stroke-miterlimit="10"/><line x1="623.85" y1="382.41" x2="671.72" y2="390.76" fill="none" stroke="#ccc" stroke-miterlimit="10"/><line x1="580.98" y1="282.76" x2="589.89" y2="281.65" fill="none" stroke="#ccc" stroke-miterlimit="10"/><line x1="581.54" y1="295.57" x2="590.45" y2="295.01" fill="none" stroke="#ccc" stroke-miterlimit="10"/><line x1="581.54" y1="308.93" x2="590.45" y2="308.37" fill="none" stroke="#ccc" stroke-miterlimit="10"/><line x1="582.65" y1="322.29" x2="591.56" y2="321.73" fill="none" stroke="#ccc" stroke-miterlimit="10"/><line x1="582.1" y1="335.65" x2="591" y2="335.09" fill="none" stroke="#ccc" stroke-miterlimit="10"/><line x1="582.65" y1="348.68" x2="591.57" y2="348.78" fill="none" stroke="#ccc" stroke-miterlimit="10"/><line x1="582.09" y1="360.93" x2="591.01" y2="361.02" fill="none" stroke="#ccc" stroke-miterlimit="10"/><line x1="582.73" y1="374.6" x2="591.49" y2="376.3" fill="none" stroke="#ccc" stroke-miterlimit="10"/><polygon points="630.53 215.96 535.89 217.63 531.88 123.47 531.44 112.97 626.63 91.26 627.14 107.6 630.53 215.96" fill="#fff"/><polygon points="627.14 107.6 531.88 123.47 531.44 112.97 626.63 91.26 627.14 107.6" fill="#ea3232"/><ellipse cx="537.56" cy="117.42" rx="1.67" ry="2.23" fill="#fff"/><ellipse cx="543.13" cy="116.31" rx="1.67" ry="2.23" fill="#fff"/><ellipse cx="549.25" cy="115.2" rx="1.67" ry="2.23" fill="#fff"/><path d="M588.22,180.89l25.61-1.67s18.37-39.53-16.14-23.94c0,0-3.9-36.74-25.61-25.05,0,0-18.93,7.79-13.92,36.18,0,0-21.71-2.78-14.47,17.82l26.72-1.12-.56-3.34h-8.91L576.53,157l21.16,18.93L587.11,177Z" fill="#f7d152"/><polygon points="571.52 203.15 574.3 174.76 568.74 174.76 577.09 163.07 587.66 173.09 582.65 173.65 586.55 202.6 571.52 203.15" fill="#f7d152"/><rect x="341.05" y="35.59" width="159.77" height="141.96" fill="#fff"/><rect x="341.05" y="35.59" width="159.77" height="13.92" fill="#f7d152"/><ellipse cx="351.35" cy="42.83" rx="3.06" ry="3.34" fill="#fff"/><ellipse cx="361.93" cy="42.83" rx="3.06" ry="3.34" fill="#fff"/><ellipse cx="372.5" cy="42.83" rx="3.06" ry="3.34" fill="#fff"/><line x1="348.84" y1="61.2" x2="356.64" y2="61.2" fill="none" stroke="#ccc" stroke-miterlimit="10"/><line x1="348.84" y1="76.79" x2="356.64" y2="76.79" fill="none" stroke="#ccc" stroke-miterlimit="10"/><line x1="348.84" y1="91.82" x2="356.64" y2="91.82" fill="none" stroke="#ccc" stroke-miterlimit="10"/><line x1="348.84" y1="106.85" x2="356.64" y2="106.85" fill="none" stroke="#ccc" stroke-miterlimit="10"/><line x1="348.84" y1="122.43" x2="356.64" y2="122.43" fill="none" stroke="#ccc" stroke-miterlimit="10"/><line x1="348.84" y1="137.46" x2="356.64" y2="137.46" fill="none" stroke="#ccc" stroke-miterlimit="10"/><line x1="348.84" y1="151.94" x2="356.64" y2="151.94" fill="none" stroke="#ccc" stroke-miterlimit="10"/><line x1="349.68" y1="166.97" x2="357.47" y2="166.97" fill="none" stroke="#ccc" stroke-miterlimit="10"/><line x1="366.38" y1="167.53" x2="390.32" y2="167.53" fill="none" stroke="#ccc" stroke-miterlimit="10"/><line x1="376.96" y1="151.94" x2="415.93" y2="151.94" fill="none" stroke="#ccc" stroke-miterlimit="10"/><line x1="425.39" y1="151.94" x2="493.86" y2="151.94" fill="none" stroke="#ccc" stroke-miterlimit="10"/><line x1="364.15" y1="106.85" x2="386.98" y2="106.85" fill="none" stroke="#ccc" stroke-miterlimit="10"/><line x1="364.15" y1="122.43" x2="413.14" y2="122.43" fill="none" stroke="#ccc" stroke-miterlimit="10"/><line x1="376.4" y1="136.91" x2="399.22" y2="136.91" fill="none" stroke="#ccc" stroke-miterlimit="10"/><line x1="407.57" y1="136.91" x2="493.86" y2="136.91" fill="none" stroke="#ccc" stroke-miterlimit="10"/><line x1="381.41" y1="91.26" x2="448.77" y2="91.26" fill="none" stroke="#ccc" stroke-miterlimit="10"/><line x1="380.85" y1="76.79" x2="421.49" y2="76.79" fill="none" stroke="#ccc" stroke-miterlimit="10"/><line x1="430.4" y1="76.23" x2="491.08" y2="76.23" fill="none" stroke="#ccc" stroke-miterlimit="10"/><line x1="363.6" y1="61.75" x2="392.54" y2="61.75" fill="none" stroke="#ccc" stroke-miterlimit="10"/><rect x="216.35" y="83.47" width="89.63" height="133.61" fill="#fff"/><rect x="216.35" y="83.47" width="89.63" height="11.69" fill="#407afe"/><circle cx="223.59" cy="89.59" r="2.78" fill="#fff"/><circle cx="231.94" cy="89.59" r="2.78" fill="#fff"/><circle cx="240.85" cy="89.59" r="2.78" fill="#fff"/><rect x="223.59" y="103.51" width="51.77" height="10.02" fill="#e6e6e6"/><rect x="255.32" y="121.88" width="42.31" height="8.91" fill="#ccc"/><rect x="240.29" y="138.02" width="57.34" height="10.02" fill="#ccc"/><rect x="223.59" y="157.51" width="60.68" height="16.7" fill="#e6e6e6"/><rect x="223.03" y="182.56" width="29.5" height="10.58" fill="#e6e6e6"/><rect x="257.55" y="198.14" width="40.08" height="10.58" fill="#ccc"/><rect x="313.22" y="248.8" width="34.51" height="54" rx="15.64" fill="#f8cfc9"/><path d="M309.13,283l-5.93,9.75a8.17,8.17,0,0,1-5.57-7.79s-18.37-8.35-11.69-20c0,0-18.37,2.78-9.47-11.14,0,0-13.91-13.36,2.79-24.49,0,0,16.14-6.12,19.48,10,0,0,4.46-5.57,11.14-5,0,0,8.14-10.06,20.88-2.18a15.21,15.21,0,0,1,4.11,3.81,12,12,0,0,0,9.52,5s9.59.05,2,18.4a10,10,0,0,0-3.64-5.32s-12.84,2-16.74,8.63l-6.68-.56s1.17,13.2-3.31,11.89Z" fill="#2b1710"/><path d="M285.94,265c4.92-1.89,7.74-8.93,9.51-13.54.54-2.26,1.52-5.51,3.5-7.36a2.84,2.84,0,0,1,2.58-.81,2.79,2.79,0,0,0-2.26,1.12c-1.63,2.08-2.27,4.82-2.8,7.37v0l-.75,2.05c-1.7,4.21-4.89,10.28-9.77,11.14Z" opacity="0.2"/><ellipse cx="311.13" cy="276.88" rx="5.65" ry="8.35" transform="translate(-96.75 192.66) rotate(-30)" fill="#f8cfc9"/><path d="M252,457s3.34,20.59,13.92,27.27c0,0,42.31-2.22,67.36,8.35,0,0,11.13,5.57,19.48,5.57l.56,4.45-35.07,40.09s15,27.27,27.83,34.51c0,0,40.64-31.17,66.8-76.82,0,0,12.25-25.61-21.71-37.86l-69.7-24.29L299.58,440a73.5,73.5,0,0,1-8.91,1.67c-3.06.34-4.59-2.6-10,2.22-2.57,2.28-7.37,4.47-12.13,5.38-2.78.53-3.46-1.48-7.95,2.85Z" fill="#407afe"/><path d="M275.92,467.58c5.68-2.94,10.07-7.84,13.95-12.83.55-.72,1.07-1.47,1.63-2.2-.45.8-.93,1.58-1.41,2.36-3.55,5.26-8.13,10.34-14.17,12.67Z" opacity="0.2"/><polygon points="545.36 404.68 451.83 404.68 451.83 274.41 543.69 263.83 545.36 404.68" fill="#f7d152"/><polygon points="454.06 390.2 535.89 390.2 535.89 266.62 453.5 277.19 454.06 390.2" fill="#fff"/><polygon points="562.17 422.46 544.92 355.22 544.92 387.58 551.84 416.92 467.42 416.92 467.42 422.49 558.16 422.49 558.16 422.46 562.17 422.46" fill="#f7d152"/><polygon points="562.17 422.46 544.92 355.22 544.92 387.58 551.84 416.92 467.42 416.92 467.42 422.49 558.16 422.49 558.16 422.46 562.17 422.46" opacity="0.2"/><line x1="480.03" y1="290.78" x2="505.3" y2="285.85" fill="none" stroke="#ccc" stroke-miterlimit="10"/><line x1="468.48" y1="304.74" x2="496.82" y2="299.81" fill="none" stroke="#ccc" stroke-miterlimit="10"/><line x1="509.27" y1="285.03" x2="528.41" y2="281.33" fill="none" stroke="#ccc" stroke-miterlimit="10"/><line x1="486.17" y1="312.95" x2="499.16" y2="311.31" fill="none" stroke="#ccc" stroke-miterlimit="10"/><line x1="505.3" y1="311.31" x2="529.13" y2="308.02" fill="none" stroke="#ccc" stroke-miterlimit="10"/><line x1="492.67" y1="324.04" x2="529.49" y2="322.81" fill="none" stroke="#ccc" stroke-miterlimit="10"/><line x1="468.12" y1="335.95" x2="483.64" y2="336.36" fill="none" stroke="#ccc" stroke-miterlimit="10"/><line x1="487.25" y1="335.95" x2="505.3" y2="336.36" fill="none" stroke="#ccc" stroke-miterlimit="10"/><line x1="509.27" y1="336.36" x2="529.49" y2="336.77" fill="none" stroke="#ccc" stroke-miterlimit="10"/><line x1="468.84" y1="346.21" x2="499.53" y2="348.68" fill="none" stroke="#ccc" stroke-miterlimit="10"/><line x1="477.5" y1="357.3" x2="502.41" y2="360.59" fill="none" stroke="#ccc" stroke-miterlimit="10"/><line x1="508.91" y1="361.82" x2="529.49" y2="364.69" fill="none" stroke="#ccc" stroke-miterlimit="10"/><line x1="484.36" y1="370.44" x2="515.41" y2="376.6" fill="none" stroke="#ccc" stroke-miterlimit="10"/><line x1="456.56" y1="296.94" x2="462.34" y2="296.12" fill="none" stroke="#ccc" stroke-miterlimit="10"/><line x1="456.92" y1="306.38" x2="462.7" y2="305.97" fill="none" stroke="#ccc" stroke-miterlimit="10"/><line x1="456.92" y1="316.24" x2="462.7" y2="315.83" fill="none" stroke="#ccc" stroke-miterlimit="10"/><line x1="457.65" y1="326.09" x2="463.42" y2="325.68" fill="none" stroke="#ccc" stroke-miterlimit="10"/><line x1="457.29" y1="335.95" x2="463.06" y2="335.54" fill="none" stroke="#ccc" stroke-miterlimit="10"/><line x1="457.64" y1="345.56" x2="463.43" y2="345.63" fill="none" stroke="#ccc" stroke-miterlimit="10"/><line x1="457.28" y1="354.6" x2="463.07" y2="354.67" fill="none" stroke="#ccc" stroke-miterlimit="10"/><line x1="457.69" y1="364.68" x2="463.38" y2="365.94" fill="none" stroke="#ccc" stroke-miterlimit="10"/><path d="M365.54,362.92l13.92-19.48s1.12-5.57,8.35-5c0,0,5.16-.34,7.91-1.84a1.27,1.27,0,0,1,1.86,1.41c-.53,1.89-2.45,4.56-8.1,7.67l5,14.47a36.39,36.39,0,0,0-5.56,1.67l-10,18.93-7.54,16.69S365,388,365.54,362.92Z" fill="#f8cfc9"/><path d="M389.48,345.67s1.67,6.12-3.34,13.36" fill="none" stroke="#efafa5" stroke-miterlimit="10"/></svg>